<?xml version="1.0" encoding="UTF-8" standalone="no"?>
<!DOCTYPE svg PUBLIC "-//W3C//DTD SVG 1.1//EN" "http://www.w3.org/Graphics/SVG/1.1/DTD/svg11.dtd">
<svg width="100%" height="100%" viewBox="0 0 827 827" version="1.1" xmlns="http://www.w3.org/2000/svg" xmlns:xlink="http://www.w3.org/1999/xlink" xml:space="preserve" xmlns:serif="http://www.serif.com/" style="fill-rule:evenodd;clip-rule:evenodd;stroke-linejoin:round;stroke-miterlimit:2;">
    <g transform="matrix(0.958886,0,0,0.868319,-297.526,-101.642)">
        <path d="M416.805,812.954C413.048,818.865 420.861,803.706 422.309,801.72C432.987,787.065 444.329,773.026 454.228,757.795C479.524,718.873 504.261,678.351 523.946,636.277C570.431,536.922 632.168,444.5 685.406,348.636C689.969,340.418 732.807,258.569 736.345,256.911C736.832,256.682 749.864,278.791 773.835,317.59C822.187,395.852 870.802,475.299 915.471,555.689C963.475,642.082 1033.77,722.972 1072.52,813.612C1073.39,815.654 1091.14,845.713 1089.76,846.961C1079.77,856.02 944.691,857.537 930.517,857.537C791.381,857.537 654.628,868.803 515.878,852.578C507.313,851.577 399.887,844.637 396.63,841.685C388.511,834.328 421.045,801.063 424.884,795.445" style="fill:white;"/>
    </g>
    <g transform="matrix(1,0,0,1,-313.78,-215.065)">
        <path d="M643.557,707.701C644.898,705.392 659.655,679.971 661.224,676.202C664.63,668.02 669.77,660.953 675.024,653.963C679.796,647.613 684.669,641.332 688.024,634.084C691.602,626.354 697.76,606.066 703.88,592.179C706.901,585.323 710.096,579.932 712.86,577.503C715.019,575.606 718.313,575.818 720.211,577.977C722.108,580.137 721.896,583.43 719.736,585.328C717.691,587.125 715.648,591.305 713.412,596.379C707.266,610.325 701.07,630.697 697.477,638.46C693.813,646.377 688.564,653.285 683.351,660.222C678.618,666.518 673.909,672.835 670.841,680.205C669.239,684.053 659.087,704.439 653.175,712.443C651.723,714.408 650.373,715.766 649.38,716.449C647.995,717.403 646.69,717.675 645.66,717.675C642.786,717.675 640.452,715.341 640.452,712.466C640.452,710.34 641.729,708.51 643.557,707.701Z" style="fill:rgb(191,191,191);"/>
    </g>
    <g transform="matrix(1,0,0,1,-313.78,-215.065)">
        <path d="M653.344,708.712C654.559,707.611 651.076,711.101 650.169,712.466C648.512,714.959 646.119,716.317 644.328,718.477C643.67,719.271 640.788,720.285 641.818,720.285C647.287,720.285 704.481,681.473 707.612,675.797C710.679,670.24 707.491,635.132 708.113,626.652C708.483,621.611 708.152,614.842 710.117,610.122C711.057,607.864 712.121,601.059 712.957,603.357C715.055,609.127 695.947,648.09 692.25,655.208C689.395,660.704 686.172,665.747 682.898,670.989C681.334,673.494 679.744,681.573 678.725,678.802C677.318,674.976 691.495,659.607 693.923,656.561C696.973,652.735 700.529,649.36 703.44,645.438C703.817,644.93 704.556,643.49 704.772,644.085C706.206,648.027 695.388,661.439 693.422,664.979C692.286,667.024 691.216,669.007 690.246,671.139C689.602,672.555 687.827,676.86 688.578,675.498C691.747,669.753 697.294,664.247 701.602,659.267C701.645,659.217 705.586,655.103 705.609,655.208C706.757,660.448 698.866,668.391 696.257,672.342C694.456,675.07 691.641,683.599 690.747,680.455C690.272,678.787 704.484,665.47 705.108,666.027C707.595,668.246 695.6,682.033 695.591,681.958C695.213,678.867 700.335,674.492 702.102,672.043C703.264,670.433 707.505,666.644 705.609,667.23C698.339,669.478 689.769,680.732 684.4,685.867C682.321,687.856 680.304,689.893 678.224,691.878C677.387,692.677 676.279,695.298 675.72,694.284C674.616,692.283 677.674,688.887 678.56,687.519C679.218,686.504 689.454,671.486 690.582,672.492C692.021,673.776 680.806,687.545 679.727,689.022C677.729,691.757 675.808,694.61 673.381,696.99C673.083,697.282 672.479,698.143 672.379,697.739C670.696,690.955 680.767,678.318 683.9,672.792C685.749,669.528 687.787,666.413 689.916,663.326C690.636,662.282 691.637,659.21 692.25,660.321C692.864,661.435 675.697,684.726 673.381,687.819C668.923,693.771 660.56,703.95 660.522,703.899C657.74,700.175 674.384,681.069 676.722,678.054C679.35,674.664 682.07,671.343 684.736,667.984C685.409,667.136 685.938,664.701 686.74,665.428C686.876,665.551 683.007,669.623 682.732,669.936C679.355,673.787 676.473,678.247 673.716,682.562C669.611,688.987 665.874,694.922 665.867,694.883C661.774,672.628 697.259,658.349 697.259,638.828C697.259,633.714 698.571,628.825 700.6,623.951C701.43,621.956 704.764,617.785 702.603,617.785C697.769,617.785 690.654,636.482 688.743,640.481C683.225,652.03 649.82,717.728 639.314,717.728" style="fill:rgb(191,191,191);"/>
        <path d="M638.783,712.547C639.061,712.361 639.909,711.781 640.472,711.263C643.01,708.93 646.018,705.035 649.288,700.276C662.905,680.46 680.225,646.228 684.044,638.235C685.431,635.333 689.505,624.984 693.518,619.023C695.202,616.522 697,614.686 698.578,613.743C699.954,612.922 701.321,612.577 702.603,612.577C703.12,612.577 703.588,612.629 704.014,612.72C704.314,611.078 704.727,609.518 705.309,608.12C705.897,606.707 706.522,603.468 707.12,601.911C707.683,600.443 708.467,599.508 709.006,599.038C710.783,597.486 712.645,597.38 714.368,597.984C715.33,598.32 716.944,599.08 717.852,601.577C718.466,603.266 718.394,606.961 716.954,611.775C716.129,614.532 714.922,617.847 713.5,621.423C713.443,623.394 713.433,625.325 713.308,627.033C712.876,632.919 714.316,651.742 714.163,664.396C714.083,671.058 713.293,676.282 712.173,678.313C711.592,679.365 709.751,681.417 706.75,683.927C697.562,691.611 675.911,706.631 660.604,716.169C654.696,719.849 649.699,722.724 646.651,724.126C644.405,725.159 642.701,725.493 641.818,725.493C639.12,725.493 638.007,724.083 637.536,723.492C637.23,723.109 636.987,722.709 636.805,722.293C635.196,721.406 634.106,719.693 634.106,717.728C634.106,715.033 636.157,712.813 638.783,712.547Z" style="fill:rgb(191,191,191);"/>
    </g>
    <g transform="matrix(1,0,0,1,-313.78,-215.065)">
        <path d="M644.994,722.386C674.144,722.386 702.993,720.766 731.826,718.178C740.851,717.367 751.161,716.076 759.882,716.076C762.953,716.076 765.867,715.472 769.064,715.472C770.79,715.472 775.969,715.472 774.243,715.472C758.278,715.472 725.966,686.527 705.609,691.728C694.831,694.482 686.081,704.02 675.885,708.258C670.871,710.342 665.958,713.428 661.194,715.627C660.84,715.79 659.803,716.226 660.192,716.226C673.583,716.226 684.601,710.227 697.093,706.156C701.041,704.87 705.321,704.368 708.95,702.397C710.755,701.416 716.85,700.445 714.796,700.445C708.921,700.445 699.424,707.317 694.589,710.215C691.73,711.929 688.119,712.741 685.402,714.573C685.248,714.677 684.902,714.947 685.072,715.022C685.908,715.396 713.982,698.487 718.302,696.536C718.524,696.435 718.788,696.073 718.968,696.236C719.756,696.95 707.092,707.084 697.76,714.274C697.04,714.828 695.591,715.926 695.591,715.926C695.591,715.926 696.833,715.148 697.429,714.723C702.722,710.951 708.032,707.046 713.623,703.75C713.74,703.681 719.713,700.025 719.805,700.445C720.368,703.015 711.471,708.618 709.786,710.215C708.381,711.547 704.015,715.224 705.779,714.423C707.584,713.605 720.999,702.563 722.975,704.354C723.25,704.603 713.1,714.888 714.124,714.423C721.035,711.289 727.291,706.755 723.476,713.67C722.852,714.801 725.85,712.638 726.982,712.017C727.509,711.728 735.038,706.85 735.668,707.958C736.649,709.682 733.053,713.126 733.494,713.52C734.299,714.238 736.362,712.885 736.835,712.616C738.851,711.47 761.715,708.901 761.715,715.322" style="fill:rgb(89,89,89);"/>
        <path d="M654.875,717.116C654.64,715.977 654.844,714.695 655.776,713.294C656.011,712.941 656.381,712.472 656.972,712.015C657.325,711.743 658.501,711.133 659.011,710.898C663.833,708.672 668.811,705.558 673.886,703.448C678.672,701.459 683.092,698.183 687.607,695.124C692.924,691.522 698.362,688.204 704.319,686.682C709.16,685.445 714.572,685.733 720.281,687.144C727.848,689.014 736.028,692.88 743.983,697.032C751.422,700.915 758.661,705.038 764.961,707.707C768.479,709.198 771.615,710.263 774.243,710.263L774.533,710.263C774.589,710.263 774.646,710.265 774.704,710.268C780.505,710.395 781.612,712.933 780.715,715.472C781.612,718.01 780.505,720.548 774.704,720.675C774.646,720.678 774.589,720.68 774.533,720.68L769.064,720.68C765.867,720.68 762.953,721.284 759.882,721.284C751.305,721.284 741.168,722.568 732.292,723.365C703.304,725.968 674.3,727.595 644.994,727.595C642.12,727.595 639.786,725.261 639.786,722.386C639.786,719.512 642.12,717.178 644.994,717.178C648.291,717.178 651.585,717.157 654.875,717.116ZM698.808,700.298C699.943,700.025 701.081,699.765 702.198,699.456C702.86,699.09 703.526,698.735 704.189,698.4C704.434,698.277 704.679,698.156 704.923,698.038C705.73,697.573 706.519,697.119 707.283,696.681C707.154,696.711 707.026,696.741 706.898,696.774C704.062,697.499 701.398,698.776 698.808,700.298ZM725.432,699.777C725.845,699.994 726.194,700.241 726.473,700.494C726.881,700.864 728.567,702.774 728.117,705.288C729.378,704.571 730.742,703.843 731.822,703.394C732.152,703.257 732.471,703.14 732.778,703.042C730.317,701.853 727.859,700.743 725.432,699.777Z" style="fill:rgb(89,89,89);"/>
    </g>
    <g transform="matrix(1,0,0,1,-313.78,-215.065)">
        <path d="M716.128,705.402C721.146,703.328 725.501,705.894 730.489,707.06C732.829,707.607 739.56,709.961 737.507,708.712C734.23,706.719 731.603,703.688 728.32,701.648C727.533,701.159 725.497,699.575 725.815,700.445C727.097,703.949 737.001,705.981 737.001,709.311" style="fill:rgb(89,89,89);"/>
        <path d="M720.608,699.414C720.741,698.633 721.048,698.032 721.305,697.594C722.147,696.16 723.48,695.121 725.551,694.991C726.193,694.95 727.255,695.013 728.474,695.599C729.187,695.942 730.452,696.841 731.069,697.224C733.032,698.444 734.758,700.021 736.53,701.516C736.963,701.776 737.356,702.02 737.681,702.233C738.55,702.802 739.288,703.42 739.9,704.067C740.004,704.133 740.108,704.198 740.213,704.262C744.359,706.784 742.976,710.39 742.677,711.089C742.237,712.116 741.237,713.811 738.799,714.2C738.238,714.407 737.632,714.519 737.001,714.519C735.814,714.519 734.719,714.122 733.843,713.452C732.239,712.974 730.337,712.373 729.304,712.131C727.231,711.647 725.262,710.937 723.313,710.389C721.612,709.91 719.938,709.463 718.117,710.215C715.461,711.313 712.412,710.048 711.314,707.391C710.216,704.735 711.482,701.687 714.138,700.589C716.369,699.667 718.506,699.345 720.608,699.414Z" style="fill:rgb(89,89,89);"/>
    </g>
    <g transform="matrix(1,0,0,1,-313.78,-215.065)">
        <path d="M718.968,582.768C718.968,589.239 751.246,662.682 756.205,674.594C760.47,684.838 767.494,692.403 773.572,701.199C775.909,704.581 780.714,713.615 780.419,713.22C769.949,699.207 718.244,696.918 715.797,679.102C714.428,669.134 732.999,611.525 725.981,605.164C724.303,603.644 719.907,617.917 719.634,619.138C717.036,630.771 717.927,644.602 717.13,656.561C717.096,657.072 717.029,662.273 716.799,662.273" style="fill:rgb(140,140,140);"/>
        <path d="M712.334,664.954C711.862,664.171 711.591,663.253 711.591,662.273C711.591,661.84 711.644,661.419 711.743,661.017C711.776,660.15 711.91,656.562 711.933,656.215C712.747,644.002 711.898,629.882 714.551,618.003C714.799,616.893 718.119,606.342 720.388,602.998C719.311,600.272 718.333,597.746 717.487,595.486C715.041,588.953 713.76,584.272 713.76,582.768C713.76,579.894 716.093,577.56 718.968,577.56C721.766,577.56 724.052,579.771 724.171,582.54C724.276,582.902 725.613,587.481 727.242,591.833C735.646,614.281 757.055,663.083 761.014,672.592C765.132,682.485 771.987,689.743 777.857,698.238C780.083,701.46 784.431,709.523 785.049,710.8C787.864,716.608 779.568,718.386 779.161,718.284C778.776,718.187 777.458,717.959 776.247,716.338C774.181,713.572 770.026,711.584 765.083,709.62C756.117,706.057 744.635,703.169 734.838,699.678C727.587,697.095 721.215,694.124 717.006,690.537C713.387,687.453 711.194,683.867 710.637,679.811C710.308,677.414 710.838,672.596 712.039,666.438C712.134,665.953 712.232,665.458 712.334,664.954ZM730.831,628.429C728.446,641.53 724.407,657.443 722.263,668.433C721.365,673.034 720.711,676.603 720.957,678.393C721.264,680.625 723.075,682.259 725.396,683.85C728.784,686.171 733.33,688.083 738.334,689.866C746.947,692.935 756.843,695.554 765.24,698.553C760.102,691.636 754.881,684.965 751.397,676.596C748.908,670.616 739.551,649.166 730.831,628.429ZM713.69,658.095C713.731,658.064 713.773,658.034 713.815,658.005C713.815,658.004 713.815,658.003 713.815,658.002C713.773,658.032 713.732,658.063 713.69,658.095Z" style="fill:rgb(140,140,140);"/>
    </g>
    <g transform="matrix(1,0,0,1,-313.78,-215.065)">
        <path d="M689.415,402.422C689.415,399.858 690.201,405.153 690.416,406.331C691.312,411.229 692.613,415.754 694.088,420.455C697.287,430.65 709.584,466.971 716.964,473.659C717.582,474.219 720.397,479.891 720.972,479.37C726.141,474.686 721.518,400.477 719.639,391.903C717.919,384.056 719.805,374.063 719.805,366.053L719.805,358.239C719.805,356.582 720.14,351.619 720.14,353.277C720.14,361.202 698.534,391.668 692.921,399.267C692.36,400.027 692.036,402.872 691.248,402.872" style="fill:rgb(191,191,191);"/>
        <path d="M688.375,396.823C688.507,396.541 688.63,396.31 688.732,396.173C692.595,390.943 704.169,374.702 710.761,362.754C712.673,359.289 714.285,356.357 714.778,354.372C714.854,353.263 714.935,352.319 714.98,352.069C715.732,347.92 719.477,347.744 720.042,347.735C720.301,347.731 725.349,347.957 725.349,353.277C725.349,353.764 725.29,354.326 725.175,354.954C725.105,356.036 725.013,357.592 725.013,358.239L725.013,366.053C725.013,373.718 723.081,383.279 724.727,390.788C726.258,397.776 729.626,447.557 728.196,469.635C727.914,473.993 727.406,477.385 726.757,479.402C726.146,481.298 725.25,482.522 724.469,483.23C722.887,484.664 720.691,485.448 717.997,483.781C717.485,483.465 716.71,482.828 715.954,481.809C715.119,480.681 713.431,477.8 713.016,477.086C710.569,474.612 707.573,469.609 704.653,463.346C698.204,449.515 691.393,429.264 689.119,422.014C687.579,417.106 686.228,412.381 685.293,407.268C685.228,406.91 685.046,405.893 684.887,404.996C684.454,404.237 684.206,403.358 684.206,402.422C684.206,398.537 686.404,397.205 688.375,396.823ZM714.011,377.638C707.805,387.483 700.62,397.585 697.435,401.921C697.183,402.674 696.453,404.788 695.997,405.469C695.883,405.64 695.765,405.8 695.644,405.951C696.496,410.422 697.704,414.58 699.058,418.896C701.261,425.919 707.846,445.544 714.093,458.943C715.447,461.847 716.729,464.447 717.938,466.458C718.027,464.464 718.082,462.285 718.111,459.968C718.401,436.419 715.844,398.916 714.552,393.018C713.529,388.353 713.687,382.96 714.011,377.638Z" style="fill:rgb(191,191,191);"/>
    </g>
    <g transform="matrix(1,0,0,1,-313.78,-215.065)">
        <path d="M725.815,479.066C725.815,477.133 764.619,417.564 768.062,414.444C768.443,414.099 768.062,411.012 768.062,410.535C768.062,403.497 748.061,374.587 743.517,366.352C741.116,361.999 734.417,359.449 732.828,355.079C732.001,352.805 728.842,347.41 727.984,349.672C725.158,357.123 725.48,452.075 725.48,471.552" style="fill:rgb(166,166,166);"/>
        <path d="M773.268,410.382C773.268,410.382 773.454,414.674 773.162,415.695C772.8,416.963 772.134,417.782 771.559,418.303C768.863,420.747 744.146,458.638 734.316,474.63C732.66,477.323 731.091,480.102 730.771,480.672C730.093,482.761 728.13,484.274 725.815,484.274C722.941,484.274 720.607,481.94 720.607,479.066C720.607,478.66 720.656,477.686 721.282,476.352C721.409,476.08 721.596,475.719 721.838,475.275C720.872,474.329 720.271,473.01 720.271,471.552C720.271,455.934 720.068,391.903 721.436,363.092C721.818,355.055 722.482,349.492 723.114,347.825C723.868,345.838 725.141,344.897 726.321,344.388C727.96,343.681 730.149,343.58 732.372,345.242C734.212,346.618 736.887,351.001 737.723,353.299C737.938,353.892 738.447,354.347 738.964,354.836C740.01,355.826 741.251,356.747 742.442,357.706C744.726,359.545 746.812,361.541 748.078,363.836C751.262,369.608 762.028,385.524 768.203,396.971C771.343,402.793 773.196,407.778 773.268,410.382ZM730.679,460.827C741.195,444.309 757.507,419.75 762.963,412.525C762.915,411.747 762.853,410.73 762.853,410.535C762.853,410.129 762.617,409.599 762.37,408.926C761.665,407.008 760.482,404.6 759.035,401.917C752.876,390.499 742.133,374.625 738.957,368.868C737.8,366.771 735.251,365.357 733.242,363.674C732.774,363.283 732.323,362.883 731.894,362.475C731.877,362.838 731.859,363.209 731.841,363.586C730.696,387.709 730.661,436.638 730.679,460.827Z" style="fill:rgb(166,166,166);"/>
    </g>
    <g transform="matrix(1,0,0,1,-313.78,-215.065)">
        <path d="M395.838,839.193L397.633,839.11C403.397,836.542 409.345,834.457 415.183,832.13C431.44,825.65 445.974,815.322 462.127,808.725C518.253,785.8 574.171,753.89 626.733,723.769C644.082,713.828 703.16,680.305 709.446,676.89C711.972,675.518 715.137,676.455 716.509,678.981C717.881,681.507 716.945,684.672 714.419,686.044C708.148,689.45 649.218,722.891 631.912,732.807C578.958,763.152 522.61,795.272 466.065,818.368C449.886,824.977 435.324,835.315 419.04,841.806C413.225,844.124 407.294,846.187 401.56,848.765C400.778,849.117 399.195,849.488 397.437,849.618C395.341,849.772 392.98,849.654 392.162,849.478C390.328,849.083 389.406,848.081 388.994,847.568C388.182,846.557 387.863,845.475 387.837,844.408C387.813,843.394 388.047,842.313 388.802,841.247C389.071,840.867 390.045,839.409 392.951,838.888C393.96,838.708 394.954,838.831 395.838,839.193Z"/>
    </g>
    <g transform="matrix(1,0,0,1,-313.78,-215.065)">
        <path d="M707.152,678.92C707.02,675.849 706.724,668.479 706.724,663.71C706.724,643.372 708.418,624.035 711.066,603.913C719.028,543.396 721.63,484.056 721.63,422.928C721.63,405.307 719.607,387.787 719.607,370.178L719.607,350.17C719.607,349.774 719.616,347.264 719.62,346.115C719.182,344.787 719.277,343.287 720.005,341.967C721.112,339.961 722.648,339.499 723.57,339.305C725.296,338.943 727.056,339.26 728.566,340.95C728.95,341.379 729.605,342.234 729.877,343.679C730.101,344.868 730.024,349.417 730.024,350.17L730.024,370.178C730.024,387.787 732.047,405.307 732.047,422.928C732.047,484.516 729.416,544.3 721.393,605.272C718.806,624.937 717.141,643.834 717.141,663.71C717.141,670.453 717.806,680.029 717.507,681.945C717.231,683.717 716.398,684.678 715.94,685.135C714.394,686.676 712.645,686.993 710.81,686.483C710.134,686.296 708.11,685.714 707.038,682.765C706.565,681.465 706.643,680.098 707.152,678.92ZM726.646,349.256C727.477,348.942 728.4,348.315 729.126,346.999C728.549,348.044 727.664,348.814 726.646,349.256ZM716.386,678.283C716.56,678.57 716.708,678.878 716.827,679.205C716.699,678.853 716.55,678.548 716.386,678.283Z"/>
    </g>
    <g transform="matrix(1,0,0,1,-313.78,-215.065)">
        <path d="M1052.2,848.062C1024.04,836.184 854.139,757.332 800.23,733.037C782.499,725.046 723.106,691.439 711.8,686.674C709.906,686.624 708.106,685.538 707.233,683.713C705.901,680.925 706.96,678.985 708.17,677.724C708.888,676.975 710.033,676.132 711.92,676.086C712.465,676.072 713.742,676.209 715.538,676.947C726.309,681.37 786.599,715.468 804.51,723.54C861.89,749.4 1051.44,837.597 1058.59,839.454C1062.35,840.433 1064.61,844.955 1063.83,848.768C1063.12,852.253 1060.53,854.45 1057.28,854.45C1054.4,854.45 1052.07,852.116 1052.07,849.242C1052.07,848.836 1052.12,848.441 1052.2,848.062ZM716.692,683.58C717.283,682.469 717.498,681.035 716.632,679.221C717.315,680.65 717.288,682.236 716.692,683.58ZM1055.9,849.519C1055.93,849.525 1055.95,849.531 1055.97,849.536C1055.95,849.531 1055.93,849.526 1055.9,849.519Z"/>
    </g>
    <g transform="matrix(0.958886,0,0,0.868319,-297.526,-101.642)">
        <path d="M424.361,789.476C433.047,777.892 441.898,766.48 449.816,754.297C474.958,715.612 499.554,675.342 519.12,633.524C565.666,534.04 627.469,441.488 680.775,345.5C684.432,338.916 712.623,285.139 725.566,263.04C728.398,258.204 730.6,254.784 731.749,253.411C732.758,252.207 733.678,251.644 734.222,251.389C734.693,251.168 738.255,249.756 741.134,253.797C743.832,257.583 756.627,279.095 778.321,314.209C826.723,392.551 875.386,472.08 920.1,552.552C968.205,639.126 1038.6,720.222 1077.43,811.051C1078.23,812.918 1092.84,837.87 1094.75,843.757C1096.16,848.101 1094.14,850.757 1093.21,851.598C1092.24,852.477 1090.6,853.453 1088.26,854.246C1084.67,855.461 1078.8,856.566 1071.34,857.5C1031.01,862.548 941.906,863.535 930.517,863.535C791.189,863.535 654.247,874.79 515.306,858.543C508.456,857.742 438.346,853.142 408.908,849.822C402.612,849.112 398.06,848.417 396.133,847.86C394.57,847.409 393.636,846.731 393.184,846.322C390.869,844.223 389.738,841.331 389.92,837.679C390.072,834.637 391.412,830.677 393.795,826.381C400.908,813.561 417.827,795.815 420.549,791.832C421.501,790.437 422.9,789.632 424.361,789.476ZM422.218,813.456C422.141,814.481 421.824,815.497 421.251,816.399C418.698,820.417 415.97,820.32 415.645,820.309C414.382,820.265 413.29,819.899 412.415,819.144C408.804,823.721 405.387,828.451 403.058,832.648C402.381,833.869 401.754,835.475 401.327,836.669C403.483,837.02 406.777,837.523 410.012,837.888C439.461,841.209 509.597,845.812 516.45,846.613C655.008,862.816 791.573,851.539 930.517,851.539C941.807,851.539 1030.14,850.584 1070.11,845.58C1074.99,844.969 1079.12,844.307 1082.24,843.568C1077.75,835.271 1068.19,817.554 1067.61,816.172C1028.94,725.723 958.744,645.037 910.841,558.826C866.218,478.518 817.651,399.152 769.348,320.971C754.07,296.243 741.914,276.43 736.182,267.072C735.687,267.876 735.179,268.716 734.687,269.555C721.783,291.588 693.681,345.207 690.036,351.772C636.867,447.511 575.197,539.804 528.771,639.03C508.967,681.359 484.09,722.134 458.641,761.292C448.684,776.612 437.282,790.739 426.54,805.48C425.872,806.398 423.709,810.458 422.218,813.456Z"/>
    </g>
</svg>
