<?xml version="1.0" encoding="UTF-8" standalone="no"?>
<!DOCTYPE svg PUBLIC "-//W3C//DTD SVG 1.1//EN" "http://www.w3.org/Graphics/SVG/1.1/DTD/svg11.dtd">
<svg width="100%" height="100%" viewBox="0 0 827 827" version="1.1" xmlns="http://www.w3.org/2000/svg" xmlns:xlink="http://www.w3.org/1999/xlink" xml:space="preserve" xmlns:serif="http://www.serif.com/" style="fill-rule:evenodd;clip-rule:evenodd;stroke-linejoin:round;stroke-miterlimit:2;">
    <g transform="matrix(1.13242,0,0,1.05319,-1307.16,-847.473)">
        <path d="M1201.86,1413.84C1201.44,1414.03 1214.94,1394.45 1217.09,1392.2C1227.64,1381.17 1238.35,1352.98 1247.76,1340.93C1276.41,1304.24 1359.12,1171.97 1376.5,1139.63C1402.21,1091.82 1469.17,949.894 1503.3,918.959C1504.21,918.136 1518.14,930.217 1568.98,1002.51C1605.87,1054.96 1634.45,1110.72 1667.32,1165.65C1715.06,1245.45 1770.49,1318.06 1809.69,1402.76C1815.45,1415.21 1821.89,1431.93 1832.44,1441.4C1833.02,1441.92 1837.04,1443.54 1836.84,1443.71C1824.35,1454.69 1693.6,1433.94 1673.92,1433.48C1541.49,1430.35 1410.61,1428.21 1278.73,1421.26C1249.94,1419.74 1230.02,1420.17 1201.86,1413.84Z" style="fill:white;"/>
    </g>
    <g transform="matrix(1.13242,0,0,1.05319,-1307.16,-847.473)">
        <path d="M1498.31,931.589C1498.82,931.434 1499.64,931.081 1498.97,931.439C1489.77,936.382 1483.92,944.302 1477.93,952.781C1465.92,969.795 1451.85,991.025 1448.88,1011.99C1446.67,1027.61 1476.43,1062.99 1486.29,1076.32C1489.99,1081.33 1495.54,1084.21 1500.15,1088.34C1500.56,1088.71 1503.2,1093.56 1503.82,1093C1506.84,1090.26 1504.49,1073.02 1504.49,1069.11C1504.49,1047.23 1500.59,1019.15 1505.32,997.868C1509.3,979.971 1514.68,955.006 1506.99,937.749C1506.04,935.611 1505.58,931.008 1502.82,932.492" style="fill:rgb(191,191,191);"/>
        <path d="M1495.09,928.056C1495.63,927.489 1496.3,927.056 1497.08,926.824C1499.53,926.089 1501.87,926.37 1503.47,927.254C1504.21,927.212 1504.88,927.322 1505.5,927.514C1506.82,927.926 1507.99,928.806 1508.92,930.171C1509.89,931.597 1510.47,934.102 1511.14,935.614C1519.24,953.811 1513.99,980.147 1509.79,999.018C1505.13,1019.95 1509.09,1047.59 1509.09,1069.11C1509.09,1071.89 1510.24,1081.31 1509.89,1087.66C1509.64,1092.11 1508.29,1095.41 1506.78,1096.78C1505.51,1097.93 1503.88,1098.48 1501.86,1097.6C1501.28,1097.35 1500.45,1096.82 1499.63,1095.88C1498.81,1094.93 1497.3,1092.56 1496.81,1091.79C1492.05,1087.63 1486.48,1084.53 1482.68,1079.4C1475.69,1069.94 1458.84,1049.49 1450.1,1032.66C1445.8,1024.36 1443.56,1016.71 1444.33,1011.25C1447.41,989.52 1461.82,967.422 1474.27,949.791C1480.29,941.275 1486.25,933.377 1495.09,928.056ZM1500.03,936.424C1492.06,941.043 1486.93,948.217 1481.6,955.772C1470.02,972.169 1456.29,992.531 1453.42,1012.74C1452.87,1016.64 1455.06,1021.91 1458.14,1027.84C1466.63,1044.21 1483.09,1064.04 1489.89,1073.24C1492.78,1077.16 1496.92,1079.64 1500.73,1082.59C1500.56,1077.12 1499.89,1071.2 1499.89,1069.11C1499.89,1046.88 1496.04,1018.34 1500.85,996.717C1503.17,986.282 1506.01,973.378 1506.27,961.098C1506.43,953.487 1505.62,946.121 1502.85,939.884C1502.59,939.32 1502.21,938.226 1501.92,937.342C1501.24,937.195 1500.59,936.882 1500.03,936.424Z" style="fill:rgb(191,191,191);"/>
    </g>
    <g transform="matrix(1.13242,0,0,1.05319,-1307.16,-847.473)">
        <path d="M1503.99,926.931C1499.42,932.391 1505.82,953.396 1505.82,960.931C1505.82,988.164 1508.13,1015.85 1505.82,1043.1C1505.1,1051.58 1506.92,1062.42 1506.89,1073.29C1506.86,1079.74 1502.25,1087.33 1506.82,1091.35C1508.49,1092.81 1521.2,1072.9 1522.52,1071.21C1537.55,1051.86 1557.38,1023.91 1563.77,1000.57C1565.96,992.55 1554.93,986.165 1551.58,980.135C1539.83,959.037 1520.67,942.048 1503.99,926.931Z" style="fill:rgb(140,140,140);"/>
        <path d="M1506.95,923.149C1524,938.6 1543.52,956.033 1555.53,977.595C1557.46,981.071 1562.11,984.612 1565.01,988.601C1568.01,992.713 1569.48,997.199 1568.18,1001.97C1561.64,1025.87 1541.44,1054.56 1526.05,1074.38C1524.98,1075.76 1516.43,1089.01 1512.2,1093.5C1510.23,1095.58 1508.34,1096.29 1507.38,1096.36C1505.98,1096.46 1504.84,1095.99 1503.91,1095.17C1500.79,1092.43 1499.9,1088.81 1500.29,1084.62C1500.62,1081.09 1502.27,1076.99 1502.29,1073.27C1502.33,1062.25 1500.51,1051.25 1501.24,1042.66C1503.54,1015.55 1501.22,988.016 1501.22,960.931C1501.22,955.696 1498.09,943.914 1497.77,935.455C1497.58,930.214 1498.6,925.974 1500.57,923.624C1502.23,921.639 1505.05,921.429 1506.95,923.149ZM1507.02,936.143C1507.07,936.912 1507.14,937.706 1507.23,938.519C1508.11,946.675 1510.42,956.294 1510.42,960.931C1510.42,988.313 1512.72,1016.15 1510.4,1043.55C1509.69,1051.9 1511.52,1062.59 1511.49,1073.31C1511.48,1075.62 1510.96,1078.07 1510.43,1080.47C1514.26,1075.16 1518.28,1068.95 1518.99,1068.04C1533.66,1049.15 1553.12,1021.95 1559.35,999.179C1559.64,998.13 1559.26,997.175 1558.76,996.24C1558.15,995.11 1557.3,994.034 1556.39,992.975C1553.25,989.355 1549.44,985.93 1547.63,982.675C1537.53,964.531 1521.77,949.548 1507.02,936.143Z" style="fill:rgb(140,140,140);"/>
    </g>
    <g transform="matrix(1.13242,0,0,1.05319,-1307.16,-847.473)">
        <path d="M1702.87,1361.26C1703.5,1358.95 1732.49,1356.9 1737.1,1356.9C1781.33,1356.9 1783.5,1361.7 1802.89,1401.09C1806.58,1408.58 1809.49,1417.65 1814.24,1424.53C1814.66,1425.14 1818.31,1430.18 1818.25,1430.24C1817.24,1431.15 1814.11,1428.19 1813.41,1427.68C1798.59,1417.03 1785.09,1406.61 1769.16,1397.48C1757.56,1390.84 1719,1364.27 1708.04,1364.27C1706.64,1364.27 1705.87,1362.96 1705.87,1361.86" style="fill:rgb(140,140,140);"/>
        <path d="M1702.59,1366.2C1702.25,1366.18 1701.91,1366.11 1701.57,1366.01C1699.13,1365.24 1697.74,1362.48 1698.45,1359.87C1698.7,1358.97 1699.21,1357.93 1700.3,1357.04C1701.03,1356.45 1702.77,1355.62 1705.32,1355.07C1713.44,1353.31 1733.3,1351.96 1737.1,1351.96C1760.59,1351.96 1772.85,1353.62 1781.87,1360.12C1790.82,1366.57 1796.74,1378.03 1806.95,1398.77C1810.54,1406.05 1813.31,1414.89 1817.93,1421.58C1818.33,1422.14 1821.4,1426.4 1821.96,1427.29C1824.23,1430.87 1821.45,1433.81 1821.22,1434.02C1820.04,1435.09 1818.43,1435.66 1816.47,1435.21C1814.64,1434.79 1811.62,1432.35 1810.85,1431.8C1796.16,1421.23 1782.79,1410.89 1766.99,1401.85C1758.91,1397.21 1737.65,1382.84 1721.88,1374.64C1715.92,1371.54 1710.93,1369.21 1708.04,1369.21C1705.59,1369.21 1703.73,1367.93 1702.59,1366.2ZM1721.12,1363.39C1722.64,1364.09 1724.24,1364.88 1725.89,1365.73C1741.77,1373.99 1763.18,1388.45 1771.32,1393.12C1782.99,1399.8 1793.37,1407.17 1803.9,1414.82C1802.19,1410.92 1800.59,1406.99 1798.82,1403.4C1789.65,1384.76 1784.79,1374.13 1776.75,1368.33C1768.78,1362.59 1757.84,1361.85 1737.1,1361.85C1735.24,1361.85 1728.13,1362.59 1721.12,1363.39Z" style="fill:rgb(140,140,140);"/>
    </g>
    <g transform="matrix(1.13242,0,0,1.05319,-1307.16,-847.473)">
        <path d="M1700.69,1370.58C1700.45,1369.47 1700.53,1371.54 1700.53,1371.93C1700.53,1377.43 1703.42,1386.26 1705.54,1391.47C1708.32,1398.32 1710.81,1430.81 1713.89,1433.7C1714.38,1434.17 1717.36,1433.7 1718.06,1433.7C1741.13,1433.7 1763.91,1437.45 1786.86,1437.45C1796.37,1437.45 1805.85,1438.36 1815.42,1438.36C1817.53,1438.36 1821.59,1439.86 1821.59,1439.86C1821.59,1439.86 1815.74,1438.68 1812.91,1437.75C1800.99,1433.84 1812.63,1436.82 1801.98,1430.41C1792.01,1424.42 1761.31,1407.13 1751.46,1400.03C1736.6,1389.31 1715.4,1380.43 1702.53,1368.77" style="fill:rgb(89,89,89);"/>
        <path d="M1699.03,1365.57C1700.66,1363.5 1703.56,1363.24 1705.5,1364.99C1718.25,1376.55 1739.29,1385.3 1754.02,1395.92C1763.81,1402.98 1794.32,1420.14 1804.23,1426.1C1807.4,1428.01 1808.94,1429.32 1809.71,1430.16C1810.28,1430.78 1810.67,1431.35 1810.93,1431.87C1811.77,1432.18 1812.93,1432.59 1814.25,1433.03C1814.64,1433.15 1815.08,1433.28 1815.56,1433.41C1818.22,1433.48 1823.09,1435.19 1823.09,1435.19C1825.37,1436.03 1826.65,1438.62 1826.04,1441.12C1825.42,1443.63 1823.12,1445.2 1820.75,1444.72C1820.75,1444.72 1817.42,1444.05 1814.47,1443.3C1805.23,1443.25 1796.05,1442.4 1786.86,1442.4C1763.91,1442.4 1741.13,1438.65 1718.06,1438.65C1717.43,1438.65 1715.14,1438.93 1713.96,1438.8C1712.46,1438.63 1711.44,1437.96 1710.86,1437.43C1710.22,1436.82 1709.44,1435.76 1708.82,1434.13C1708.11,1432.29 1707.4,1429.24 1706.73,1425.53C1704.84,1414.91 1703.21,1398.09 1701.32,1393.45C1698.99,1387.71 1695.93,1377.98 1695.93,1371.93C1695.93,1371.45 1695.99,1369.52 1696.1,1369.08C1696.63,1366.86 1697.93,1365.95 1699.03,1365.57ZM1796.39,1432.75C1784.08,1425.51 1757.88,1410.62 1748.9,1404.14C1736.15,1394.94 1718.8,1387.05 1705.91,1377.67C1706.86,1381.82 1708.48,1386.37 1709.75,1389.49C1711.76,1394.44 1713.74,1412.34 1715.77,1423.67C1716.09,1425.44 1716.57,1427.43 1716.94,1428.82C1717.44,1428.78 1717.89,1428.76 1718.06,1428.76C1741.13,1428.76 1763.91,1432.51 1786.86,1432.51C1790.04,1432.51 1793.21,1432.61 1796.39,1432.75ZM1696.54,1372.7C1696.4,1372.39 1696.29,1372.06 1696.22,1371.72C1696.3,1372.1 1696.41,1372.43 1696.54,1372.7Z" style="fill:rgb(89,89,89);"/>
    </g>
    <g transform="matrix(1.13242,0,0,1.05319,-1307.16,-847.473)">
        <path d="M1498.2,1255.43C1498.99,1253.92 1500.49,1252.91 1502.21,1252.91C1504.28,1252.91 1505.38,1254 1505.98,1254.79C1506.67,1255.7 1507.06,1256.79 1507.04,1258.08C1507.02,1258.86 1506.87,1260.17 1505.72,1261.56C1505.2,1262.18 1503.74,1263.44 1501.31,1265.08C1475.14,1282.77 1313.44,1372.11 1269.77,1390.32C1249.8,1398.65 1229.11,1413.96 1207.41,1416.12C1204.88,1416.38 1202.64,1414.37 1202.41,1411.66C1202.17,1408.94 1204.04,1406.53 1206.56,1406.28C1227.44,1404.2 1247.23,1389.12 1266.44,1381.1C1309.82,1363.01 1470.42,1274.27 1496.42,1256.7C1497.07,1256.27 1497.72,1255.79 1498.2,1255.43Z"/>
    </g>
    <g transform="matrix(1.13242,0,0,1.05319,-1307.16,-847.473)">
        <path d="M1508.13,1256.51C1508.29,1257.14 1508.33,1257.81 1508.24,1258.5C1507.95,1260.54 1506.93,1261.37 1506.61,1261.66C1505.1,1263 1503.54,1263.11 1501.98,1262.46C1501.32,1262.18 1500.06,1261.57 1499.35,1259.61C1499.28,1259.41 1499.03,1258.44 1498.92,1256.76C1498.26,1246.32 1496.54,1182.44 1498.6,1160.28C1505.76,1083.32 1498.58,1008.09 1498.58,930.414C1498.58,927.684 1500.64,925.469 1503.18,925.469C1505.71,925.469 1507.78,927.684 1507.78,930.414C1507.78,1008.42 1514.94,1083.98 1507.75,1161.27C1505.73,1183.05 1507.45,1245.83 1508.1,1256.08C1508.11,1256.23 1508.12,1256.38 1508.13,1256.51ZM1500.11,1254.66C1499.73,1255.14 1499.3,1255.88 1499.13,1257.05C1499.26,1256.14 1499.61,1255.33 1500.11,1254.66Z"/>
    </g>
    <g transform="matrix(1.13242,0,0,1.05319,-1307.16,-847.473)">
        <path d="M1499.48,1261.84C1497.44,1260.22 1497,1257.12 1498.5,1254.93C1500.01,1252.73 1502.89,1252.26 1504.93,1253.87C1515.85,1262.51 1601.44,1308.04 1622.64,1317.37C1674.92,1340.36 1780.94,1404.48 1828.83,1434.92C1831.02,1436.31 1831.74,1439.35 1830.45,1441.69C1829.16,1444.05 1826.34,1444.83 1824.15,1443.44C1776.54,1413.17 1671.14,1349.38 1619.16,1326.52C1597.59,1317.04 1510.59,1270.62 1499.48,1261.84Z"/>
    </g>
    <g transform="matrix(1.13242,0,0,1.05319,-1307.16,-847.473)">
        <path d="M1835.1,1437.34C1835.81,1437.68 1839,1439.25 1839.45,1439.59C1840.9,1440.7 1841.23,1442.04 1841.35,1442.69C1841.73,1444.62 1841.23,1446.25 1839.75,1447.54C1838.62,1448.54 1836.89,1449.47 1834.54,1450.14C1830.67,1451.24 1824.61,1451.8 1817.02,1451.85C1776.49,1452.15 1689.58,1438.79 1673.82,1438.42C1541.35,1435.3 1410.42,1433.15 1278.51,1426.2C1249.57,1424.67 1229.52,1425.07 1201.29,1418.76L1201.28,1418.76C1200.91,1418.7 1200.59,1418.61 1200.31,1418.5C1199.44,1418.16 1198.73,1417.6 1198.18,1416.81C1198.04,1416.62 1196.27,1413.87 1198.31,1410.59C1200.28,1407.42 1211.87,1390.76 1213.89,1388.65C1218.92,1383.4 1223.91,1374 1228.84,1364.53C1234.17,1354.3 1239.39,1343.96 1244.24,1337.76C1272.79,1301.19 1355.2,1169.38 1372.52,1137.16C1390.54,1103.65 1428.8,1023.98 1461.85,968.561C1476.31,944.31 1489.87,924.666 1500.34,915.178C1501.14,914.449 1502.32,913.772 1504.08,914.024C1504.72,914.114 1506.27,914.584 1508.52,916.567C1514.24,921.606 1531.53,941.061 1572.65,999.526C1609.61,1052.08 1638.26,1107.93 1671.18,1162.97C1719.02,1242.93 1774.54,1315.69 1813.81,1400.56C1819.26,1412.34 1825.19,1428.25 1835.1,1437.34ZM1209.72,1410.45C1234.1,1415.21 1252.85,1414.94 1278.95,1416.32C1410.79,1423.27 1541.63,1425.41 1674.02,1428.53C1687.81,1428.86 1756.08,1439.13 1800.09,1441.49C1810.44,1442.05 1819.41,1442.17 1825.92,1441.59C1816.94,1431.46 1810.91,1416.5 1805.57,1404.96C1766.45,1320.42 1711.1,1247.97 1663.45,1168.32C1630.65,1113.5 1602.13,1057.85 1565.31,1005.49C1533.48,960.235 1516.23,938.714 1507.58,929.197C1506.09,927.56 1504.73,926.205 1503.69,925.225C1494.1,935.01 1482.27,952.652 1469.59,973.901C1436.62,1029.19 1398.46,1108.68 1380.48,1142.11C1363.04,1174.56 1280.04,1307.29 1251.28,1344.12C1246.72,1349.95 1241.88,1359.73 1236.87,1369.37C1231.45,1379.76 1225.82,1389.97 1220.3,1395.74C1219.02,1397.08 1213.59,1404.8 1209.72,1410.45ZM1202.94,1409.03C1202.21,1408.83 1201.24,1408.76 1200.08,1409.28C1200.94,1408.89 1201.89,1408.79 1202.8,1409C1202.85,1409.01 1202.89,1409.02 1202.94,1409.03Z"/>
    </g>
</svg>
