<?xml version="1.0" encoding="UTF-8" standalone="no"?>
<!DOCTYPE svg PUBLIC "-//W3C//DTD SVG 1.1//EN" "http://www.w3.org/Graphics/SVG/1.1/DTD/svg11.dtd">
<svg width="100%" height="100%" viewBox="0 0 827 827" version="1.1" xmlns="http://www.w3.org/2000/svg" xmlns:xlink="http://www.w3.org/1999/xlink" xml:space="preserve" xmlns:serif="http://www.serif.com/" style="fill-rule:evenodd;clip-rule:evenodd;stroke-linejoin:round;stroke-miterlimit:2;">
    <g transform="matrix(1.03188,0,0,1.07081,-323.093,-207.239)">
        <path d="M711.895,320.579C713.243,323.022 709.448,323.535 708.157,325.51C677.189,372.872 644.95,419.329 614.587,467.192C565.978,543.82 516.274,620.216 467.811,696.372C448.662,726.464 430.38,761.065 406.899,788.183C400.901,795.11 388.55,808.653 388.55,808.653L421.208,808.653C463.124,808.653 506.072,804.912 547.798,808.653C652.65,818.052 760.983,812.625 866.303,812.625C907.005,812.625 947.278,811.187 987.39,806.679C999.478,805.32 1012.23,806.35 1024.45,806.35C1029.83,806.35 1042.44,811.738 1040.6,806.679C1036.2,794.601 1021.33,785.24 1015.64,772.989C966.182,666.432 902.841,560.789 835.847,463.561C803.817,417.075 749.683,361.4 711.895,320.579Z" style="fill:white;"/>
    </g>
    <g transform="matrix(1.03188,0,0,1.07081,-2176.12,-230.672)">
        <path d="M2509.74,591.031C2509.99,588.667 2510.74,583.966 2510.74,583.966C2510.74,583.966 2509.12,587.667 2508.07,589.378C2502.96,597.643 2496.23,605.707 2491.87,614.325C2481.55,634.714 2468.82,656.327 2455.3,674.594C2450.58,680.966 2444.79,686.168 2439.77,692.177C2438.07,694.205 2436.05,696.114 2434.09,697.888C2433.31,698.59 2431.39,700.973 2431.76,699.99C2437.2,685.181 2494.27,668.938 2506.73,657.759C2507.53,657.042 2506.49,610.038 2508.4,603.207C2509.73,598.42 2511.82,592.382 2507.07,597.191" style="fill:rgb(191,191,191);"/>
        <path d="M2437.68,686.997C2442.18,681.929 2447.09,677.299 2451.19,671.769C2464.56,653.713 2477.13,632.346 2487.33,612.193C2491.76,603.456 2498.55,595.267 2503.73,586.889C2504.67,585.372 2506.08,582.084 2506.08,582.084C2507.07,579.82 2509.65,578.619 2512.1,579.284C2514.56,579.949 2516.11,582.271 2515.73,584.698C2515.73,584.698 2515.01,589.252 2514.76,591.543C2514.69,592.127 2514.52,592.676 2514.27,593.174C2514.67,593.85 2514.96,594.686 2515.05,595.714C2515.19,597.361 2514.19,601.178 2513.27,604.47C2511.59,610.499 2512.39,648.447 2511.96,656.489C2511.87,658.295 2511.51,659.397 2511.36,659.721C2511,660.487 2510.54,660.983 2510.17,661.32C2502.5,668.201 2478.44,677.126 2459.14,686.308C2453.73,688.885 2448.72,691.481 2444.67,694.085C2444.35,694.464 2444.02,694.845 2443.7,695.229C2441.86,697.432 2439.67,699.513 2437.54,701.439C2437.06,701.872 2436.13,702.974 2435.62,703.46C2434.82,704.206 2434.07,704.57 2433.68,704.723C2431.56,705.555 2429.94,704.941 2428.87,704.226C2428.08,703.707 2425.65,702.03 2427,698.365C2428.33,694.733 2432.16,690.826 2437.68,686.997ZM2502.97,605.705C2500.56,609.226 2498.26,612.79 2496.41,616.458C2486.53,635.964 2474.48,656.575 2461.62,674.385C2469.78,670.72 2478.3,667.155 2485.74,663.794C2492.53,660.727 2498.38,657.913 2501.91,655.313C2502.24,646.922 2501.93,617.213 2502.97,605.705Z" style="fill:rgb(191,191,191);"/>
    </g>
    <g transform="matrix(1.03188,0,0,1.07081,-2176.12,-230.672)">
        <path d="M2518.25,584.421C2518.25,594.448 2509.31,660.474 2514.91,667.23C2517.94,670.888 2538.49,672.993 2545.81,679.551C2550.03,683.342 2580.4,702.083 2582.54,700.14C2586.7,696.373 2575.77,679.992 2574.03,676.546C2562.38,653.473 2547.66,632.3 2535.12,609.667C2531.5,603.136 2527.38,596.447 2523.26,590.282C2521.29,587.335 2514.93,580.187 2518.42,580.811" style="fill:rgb(140,140,140);"/>
        <path d="M2513.2,584.577C2512.49,583.125 2512.3,581.853 2512.36,580.993C2512.46,579.305 2513.22,578.063 2514.34,577.164C2515.29,576.398 2516.84,575.581 2519.34,576.029C2522.08,576.519 2523.89,579.06 2523.38,581.7C2523.38,581.738 2523.37,581.776 2523.36,581.814C2524.63,583.569 2526.68,586.415 2527.5,587.647C2531.7,593.921 2535.88,600.729 2539.57,607.376C2552.14,630.063 2566.89,651.29 2578.57,674.419C2579.84,676.934 2585.73,686.088 2587.71,692.683C2589.19,697.615 2588.27,701.627 2586,703.683C2585.22,704.385 2584.13,704.999 2582.57,705.123C2581.45,705.213 2579.15,704.816 2576.22,703.541C2566.83,699.449 2545.89,686.273 2542.37,683.112C2540.72,681.636 2538.2,680.522 2535.42,679.501C2530.35,677.632 2524.47,676.251 2520.02,674.905C2515.51,673.535 2512.24,671.8 2510.97,670.266C2510.31,669.472 2509.66,668.301 2509.2,666.72C2508.57,664.569 2508.18,661.251 2508.06,657.117C2507.49,636.528 2513.13,593.01 2513.2,584.577ZM2522.26,597.878C2520.92,611.872 2518.69,633.004 2518.21,648.407C2518.03,653.858 2518.07,658.55 2518.49,661.847C2518.59,662.622 2518.81,663.546 2518.94,664.067C2520.03,664.482 2523.49,665.778 2526.39,666.586C2534.42,668.821 2544.4,671.649 2549.24,675.991C2551.84,678.322 2568.16,687.53 2576.89,692.391C2574.49,686.808 2570.47,680.625 2569.49,678.673C2557.87,655.655 2543.18,634.538 2530.66,611.959C2528.06,607.261 2525.2,602.479 2522.26,597.878Z" style="fill:rgb(140,140,140);"/>
    </g>
    <g transform="matrix(1.03188,0,0,1.07081,-2176.12,-230.672)">
        <path d="M2435.93,708.857C2435.79,709.604 2454.08,708.857 2456.47,708.857C2470.26,708.857 2483.94,708.258 2497.71,708.258C2520.42,708.258 2543.12,709.306 2565.68,709.306C2569.6,709.306 2584.35,711.542 2585.55,707.204C2586.91,702.259 2552.76,700.071 2548.27,696.921C2535.43,687.919 2520.8,671.644 2504.46,674.088C2496.18,675.324 2419.21,712.104 2443.94,708.407" style="fill:rgb(89,89,89);"/>
        <path d="M2435.43,704.015C2435.67,703.7 2435.94,703.382 2436.25,703.062C2439.35,699.858 2449.69,693.778 2461.54,687.73C2478.95,678.846 2499.56,669.897 2503.68,669.281C2511.36,668.134 2518.75,670.339 2525.78,674.271C2534.85,679.347 2543.31,687.402 2551.1,692.89C2551.5,692.995 2556.43,694.285 2560.45,694.984C2568.87,696.445 2579.39,698.029 2584.52,700.029C2589.89,702.122 2591.14,705.86 2590.43,708.454C2589.66,711.23 2586.89,713.605 2582.33,714.364C2577.06,715.24 2568.57,714.17 2565.68,714.17C2543.12,714.17 2520.42,713.122 2497.71,713.122C2483.94,713.122 2470.26,713.721 2456.47,713.721C2454.23,713.721 2438.64,714.287 2435.64,713.847C2430.86,713.144 2430.75,709.128 2430.96,708.013C2431.36,705.815 2433.24,704.222 2435.43,704.015ZM2451.89,704.038C2454.13,704.011 2455.89,703.993 2456.47,703.993C2470.26,703.993 2483.94,703.394 2497.71,703.394C2517.78,703.394 2537.84,704.212 2557.8,704.403C2554.87,703.884 2552.23,703.371 2550.23,702.848C2547.91,702.242 2546.22,701.5 2545.3,700.855C2538.91,696.373 2532.07,690.076 2524.8,685.208C2518.61,681.068 2512.15,677.86 2505.23,678.894C2501.41,679.466 2482.42,688.082 2466.27,696.327C2460.94,699.045 2455.92,701.705 2451.89,704.038Z" style="fill:rgb(89,89,89);"/>
    </g>
    <g transform="matrix(1.03188,0,0,1.07081,-2176.12,-230.672)">
        <path d="M2252.08,744.627C2251.84,744.519 2255.41,744.478 2256.42,744.478C2262.56,744.478 2266.86,746.213 2272.62,747.932C2285.7,751.843 2300.53,751.85 2313.86,754.847C2317.35,755.632 2321.09,755.9 2324.72,755.9C2325.31,755.9 2331.39,756.356 2331.23,756.499C2327.74,759.664 2297.1,767.966 2290.32,770.323C2266.17,778.717 2243.89,793.719 2221.68,805.645C2217.81,807.727 2192.13,823.378 2190.96,823.378C2189.69,823.378 2192.69,821.519 2193.63,820.672C2195.24,819.228 2197.22,818.177 2198.97,816.913C2204.7,812.784 2209.61,808.557 2214.84,803.837C2220.55,798.677 2252.08,753.847 2252.08,748.531" style="fill:rgb(191,191,191);"/>
        <path d="M2247.06,748.061C2247.11,747.556 2247.24,747.073 2247.44,746.625C2247.25,746.195 2247.16,745.791 2247.1,745.466C2246.92,744.474 2246.7,740.748 2251.05,739.843C2251.56,739.736 2255.28,739.614 2256.42,739.614C2263.12,739.614 2267.84,741.411 2274.11,743.287C2287.08,747.164 2301.79,747.139 2315.01,750.11C2318.13,750.812 2321.48,751.036 2324.72,751.036C2325.34,751.036 2331.13,751.482 2332.15,751.689C2336.72,752.623 2336.32,756.859 2336.16,757.564C2335.96,758.384 2335.55,759.256 2334.69,760.043C2333.42,761.187 2329.33,763.116 2323.84,765.014C2313.21,768.687 2296.78,773.249 2292.03,774.899C2268.14,783.205 2246.12,798.093 2224.14,809.893C2220.64,811.775 2199.41,824.68 2194.35,827.244C2192.6,828.129 2191.32,828.242 2190.96,828.242C2188.54,828.242 2187.37,827.108 2186.73,826.336C2185.75,825.157 2185.26,823.677 2185.8,821.846C2185.98,821.243 2186.41,820.307 2187.35,819.381C2188.02,818.722 2189.55,817.689 2190.2,817.111C2191.94,815.55 2194.05,814.386 2195.95,813.019C2201.52,809.001 2206.3,804.882 2211.39,800.288C2215.28,796.769 2231.42,774.259 2240.8,759.328C2243.94,754.322 2246.76,748.649 2247.06,748.061ZM2257.05,745.464C2257.31,744.267 2257.12,743.036 2256.21,741.826C2256.97,742.869 2257.29,744.179 2257.05,745.464ZM2255.53,741.079C2255.22,740.787 2254.79,740.476 2254.2,740.214C2254.7,740.438 2255.15,740.732 2255.53,741.079ZM2257.03,749.348C2256.69,751.078 2255.43,754.248 2253.17,758.185C2247.29,768.416 2235.03,786.113 2226.5,797.397C2246.56,786.158 2266.84,773.314 2288.61,765.748C2292.01,764.564 2301.44,761.879 2310.42,759.099C2297.59,756.544 2283.57,756.299 2271.12,752.578C2266.09,751.072 2262.29,749.465 2257.03,749.348Z" style="fill:rgb(191,191,191);"/>
    </g>
    <g transform="matrix(1.03188,0,0,1.07081,-2176.12,-230.672)">
        <path d="M2192.63,825.48C2205.03,825.48 2294.98,830.194 2301.84,823.977C2311.41,815.305 2314.47,794.8 2320.71,783.553C2322.02,781.19 2335.08,762.494 2333.9,761.457C2330.06,758.083 2315.12,768.213 2311.69,770.778C2293.31,784.517 2267.97,795.874 2246.57,804.142C2236.17,808.158 2226.41,813.969 2216.01,818.116C2211.88,819.761 2207.72,821.299 2203.99,823.528C2203.27,823.954 2199.81,825.934 2200.81,825.934" style="fill:rgb(89,89,89);"/>
        <path d="M2199.1,820.759C2199.99,820.187 2200.96,819.613 2201.33,819.395C2205.28,817.028 2209.7,815.368 2214.08,813.621C2224.5,809.467 2234.28,803.65 2244.69,799.627C2265.68,791.516 2290.57,780.412 2308.6,766.934C2311.21,764.985 2319.97,759.056 2326.41,756.903C2331.16,755.311 2335.15,755.967 2337.3,757.863C2338.18,758.637 2339.71,760.594 2338.66,763.75C2337.35,767.689 2326.38,783.643 2325.16,785.845C2321.5,792.447 2319,802.325 2315.53,810.992C2312.87,817.642 2309.61,823.614 2305.3,827.52C2304.49,828.25 2303.17,829.036 2301.27,829.618C2298.75,830.387 2294.64,830.988 2289.42,831.371C2267.22,833 2222.93,831.261 2202.29,830.587C2201.82,830.724 2201.33,830.798 2200.81,830.798C2200,830.798 2199.33,830.676 2198.76,830.476C2196.01,830.393 2193.91,830.343 2192.63,830.343C2189.85,830.343 2187.59,828.164 2187.59,825.48C2187.59,822.795 2189.85,820.616 2192.63,820.616C2193.96,820.616 2196.18,820.67 2199.1,820.759ZM2220.68,821.477C2238.38,822.042 2260.66,822.604 2277.44,822.181C2284.76,821.996 2291,821.631 2295.25,820.968C2296.62,820.756 2298.22,820.304 2298.66,820.177C2302.77,816.27 2305.36,809.797 2307.76,803.136C2310.59,795.264 2313.03,787.074 2316.26,781.262C2316.89,780.125 2320.74,773.965 2324.06,768.694C2320.06,770.877 2316.27,773.512 2314.79,774.621C2296.06,788.621 2270.25,800.232 2248.44,808.657C2238.98,812.312 2230.05,817.459 2220.68,821.477Z" style="fill:rgb(89,89,89);"/>
    </g>
    <g transform="matrix(1.03188,0,0,1.07081,-2176.12,-230.672)">
        <path d="M2182.75,824.981C2182.8,824.978 2182.84,824.976 2182.88,824.976C2185.46,824.976 2188.71,823.467 2192.14,821.698C2198.58,818.376 2205.33,813.793 2209.68,811.626C2221.89,805.538 2304.99,766.206 2381.4,727.745C2431.63,702.457 2476.31,675.816 2505.62,665.254C2508.23,664.314 2511.14,665.593 2512.12,668.107C2513.1,670.622 2511.77,673.426 2509.16,674.366C2480.1,684.834 2435.86,711.304 2386.07,736.367C2309.65,774.837 2226.53,814.178 2214.31,820.267C2209.99,822.418 2203.3,826.976 2196.91,830.274C2191.78,832.92 2186.74,834.704 2182.88,834.704C2182.84,834.704 2182.8,834.703 2182.75,834.7C2182.68,834.703 2182.61,834.704 2182.53,834.704C2177.78,834.704 2177.03,832.272 2177.88,829.84C2177.03,827.408 2177.78,824.976 2182.53,824.976C2182.61,824.976 2182.68,824.978 2182.75,824.981Z"/>
    </g>
    <g transform="matrix(1.03188,0,0,1.07081,-2176.12,-230.672)">
        <path d="M2503.67,668.017C2504.73,663.68 2509.5,636.976 2509.08,568.881C2509,557.503 2508.85,513.538 2508.65,500.616C2507.79,444.836 2501.61,390.641 2503.33,363.307C2503.43,361.672 2503.19,347.085 2503.15,344.634C2502.81,343.98 2502.62,343.243 2502.62,342.463C2502.62,339.778 2504.88,337.599 2507.66,337.599C2509.03,337.599 2511.86,338.156 2512.87,341.708C2513.83,345.042 2513.54,361.814 2513.41,363.897C2511.69,391.086 2517.89,444.99 2518.74,500.472C2518.94,513.41 2519.1,557.43 2519.17,568.823C2519.61,639.274 2514.46,666.449 2513.45,670.457C2512.38,674.638 2508.59,674.693 2508.37,674.692C2507.31,674.692 2506.31,674.399 2505.39,673.755C2504.75,673.302 2503.88,672.525 2503.48,671.022C2503.41,670.758 2503.32,670.354 2503.32,669.8C2503.32,669.171 2503.45,668.569 2503.67,668.017ZM2506.7,347.237C2507.02,347.298 2507.34,347.327 2507.66,347.327C2507.33,347.327 2507.01,347.296 2506.7,347.237ZM2511.99,666.412C2512.87,667.289 2513.41,668.484 2513.41,669.8C2513.41,667.968 2512.57,666.946 2511.99,666.412Z"/>
    </g>
    <g transform="matrix(1.03188,0,0,1.07081,-2176.12,-230.672)">
        <path d="M2513.24,667.963C2518.77,670.698 2569.29,695.559 2592.22,702.07C2652.16,719.091 2703.05,745.703 2757.12,776.082C2781.83,789.966 2806.88,803.02 2830.05,818.663C2830.46,818.771 2831.54,819.061 2831.79,819.151C2832.32,819.346 2832.7,819.569 2832.95,819.735C2834.33,820.653 2834.8,821.786 2835,822.6C2835.38,824.071 2835.15,825.51 2834,826.857C2833.82,827.073 2832.63,828.706 2828.94,828.706C2827.53,828.706 2826.25,828.145 2825.33,827.241C2825.04,827.115 2824.8,826.992 2824.63,826.879C2801.58,811.279 2776.63,798.306 2752.04,784.486C2698.69,754.512 2648.5,728.195 2589.36,711.401C2563.83,704.152 2513.41,681.463 2505.95,674.909C2501.78,671.246 2503.49,667.697 2505.14,666.232C2507.18,664.408 2510.38,664.526 2512.27,666.496C2512.69,666.938 2513.02,667.436 2513.24,667.963ZM2513.03,672.073C2512.77,672.546 2512.42,672.985 2511.99,673.369C2512.44,672.975 2512.78,672.542 2513.03,672.073Z"/>
    </g>
    <g transform="matrix(1.03188,0,0,1.07081,-323.093,-207.239)">
        <path d="M706.875,320.063C707.026,318.704 707.769,317.42 709.009,316.588C711.105,315.181 713.961,315.504 715.661,317.341C753.59,358.313 807.903,414.212 840.052,460.87C907.198,558.319 970.678,664.204 1020.25,771.003C1022.89,776.695 1027.75,781.661 1032.37,786.662C1037.81,792.541 1042.96,798.472 1045.36,805.07C1046.45,808.079 1045.57,810.091 1044.37,811.448C1043.35,812.61 1041.65,813.587 1039.17,813.697C1037.46,813.773 1034.96,813.369 1032.29,812.762C1029.49,812.126 1026.42,811.213 1024.45,811.213C1012.42,811.213 999.872,810.172 987.974,811.51C947.669,816.04 907.201,817.488 866.303,817.488C760.828,817.488 652.336,822.909 547.33,813.496C505.758,809.769 462.969,813.517 421.208,813.517L388.55,813.517C386.568,813.517 384.769,812.399 383.952,810.658C383.135,808.918 383.45,806.877 384.759,805.442C384.759,805.442 397.053,791.962 403.024,785.066C426.353,758.124 444.483,723.726 463.508,693.829C511.97,617.675 561.672,541.282 610.281,464.655C640.655,416.773 672.907,370.298 703.886,322.917C704.519,321.95 705.399,321.109 706.404,320.389C706.539,320.293 706.703,320.179 706.875,320.063ZM1033.05,802.932C1030.8,799.556 1027.83,796.366 1024.84,793.135C1019.51,787.373 1014.08,781.534 1011.04,774.975C961.687,668.66 898.484,563.259 831.642,466.251C800.89,421.62 749.668,368.503 712.294,328.307C681.38,375.58 649.201,421.953 618.894,469.729C570.283,546.359 520.578,622.757 472.114,698.915C452.841,729.201 434.408,764.005 410.774,791.299C407.855,794.67 403.439,799.601 399.661,803.789L421.208,803.789C463.279,803.789 506.385,800.056 548.265,803.81C652.963,813.196 761.138,807.761 866.303,807.761C906.808,807.761 946.887,806.334 986.805,801.847C999.084,800.467 1012.03,801.486 1024.45,801.486C1026.64,801.486 1029.86,802.182 1033.02,802.926C1033.03,802.928 1033.04,802.93 1033.05,802.932Z"/>
    </g>
</svg>
