<?xml version="1.0" encoding="UTF-8" standalone="no"?>
<!DOCTYPE svg PUBLIC "-//W3C//DTD SVG 1.1//EN" "http://www.w3.org/Graphics/SVG/1.1/DTD/svg11.dtd">
<svg width="100%" height="100%" viewBox="0 0 827 827" version="1.1" xmlns="http://www.w3.org/2000/svg" xmlns:xlink="http://www.w3.org/1999/xlink" xml:space="preserve" xmlns:serif="http://www.serif.com/" style="fill-rule:evenodd;clip-rule:evenodd;stroke-linejoin:round;stroke-miterlimit:2;">
    <g transform="matrix(0.840738,0,0,0.786607,-492.045,-877.623)">
        <path d="M1028.63,1352.36C929.887,1479.71 853.888,1628.56 780.697,1771.58C756.795,1818.28 726.78,1861.52 700.621,1907.06C692.09,1921.91 685.615,1937.76 677.3,1952.72C673.981,1958.69 670.156,1964.35 666.718,1970.25C665.249,1972.77 658.752,1977.4 661.668,1977.4C674.023,1977.4 692.439,1973.37 705.368,1972.93C782.743,1970.26 854.46,1963.61 931.717,1958.78C1027.36,1952.81 1125.2,1953.79 1221,1956.19C1291.32,1957.95 1360.35,1969.42 1429.98,1977.61C1448.4,1979.78 1466.94,1982.8 1485.53,1982.8C1487.85,1982.8 1492.07,1985.3 1492.5,1983.02C1499.01,1948.73 1400.18,1809.13 1380.92,1779.15C1335.68,1708.7 1301.55,1631.42 1255.64,1561.43C1218.1,1504.22 1172.5,1454.72 1130.59,1401.05C1108.09,1372.24 1099.42,1338.39 1077.68,1307.99C1076.73,1306.66 1071.59,1297.03 1069.99,1298.68C1053.14,1316.09 1035.52,1341.02 1028.63,1352.36Z" style="fill:white;"/>
    </g>
    <g transform="matrix(1,0,0,1,-1891.7,-763.923)">
        <path d="M1971.13,1426.42C1992.96,1423.34 2037.83,1396.04 2054.99,1380.65C2060.79,1375.45 2072.71,1371.15 2076.3,1364.85C2077.57,1362.61 2058.59,1359.18 2056.2,1358.1C2050.88,1355.7 2020.87,1345.5 2015.08,1347.57C2009.62,1349.53 1980.89,1396.96 1978.18,1403.47C1976.4,1407.74 1970.31,1424.8 1965.42,1424.8" style="fill:rgb(191,191,191);"/>
        <path d="M1964.33,1419.71C1964.78,1419.15 1966.18,1417.38 1966.97,1415.98C1969.84,1410.85 1972.34,1403.93 1973.37,1401.46C1975.59,1396.14 1994.8,1364 2005.27,1350.34C2007.33,1347.65 2009.12,1345.62 2010.42,1344.48C2011.55,1343.49 2012.57,1342.94 2013.33,1342.66C2015.54,1341.87 2020.55,1342.06 2026.63,1343.39C2038.14,1345.91 2054.49,1351.62 2058.33,1353.35C2060.26,1354.22 2072.87,1356.62 2077.18,1358.7C2082.24,1361.13 2082.03,1365.31 2080.82,1367.43C2079.04,1370.57 2075.71,1373.43 2071.76,1376C2067.22,1378.95 2061.78,1381.56 2058.47,1384.53C2040.76,1400.41 1994.38,1428.4 1971.86,1431.58C1970.01,1431.84 1968.25,1431.1 1967.13,1429.77C1966.54,1429.93 1965.97,1430.01 1965.42,1430.01C1962.55,1430.01 1960.22,1427.68 1960.22,1424.8C1960.22,1422.31 1961.98,1420.21 1964.33,1419.71ZM1976.68,1419.89C1999.2,1413.54 2036.41,1390.32 2051.51,1376.77C2054.62,1373.99 2059.33,1371.4 2063.78,1368.71C2065.09,1367.92 2066.38,1367.14 2067.56,1366.33C2062.25,1364.85 2055.43,1363.47 2054.05,1362.85C2050.46,1361.23 2035.17,1355.92 2024.4,1353.56C2021.67,1352.97 2018.33,1352.66 2017.11,1352.57C2016.01,1353.84 2012.43,1358.04 2009.48,1362.26C1999.22,1376.96 1984.84,1401.01 1982.99,1405.47C1981.96,1407.95 1979.51,1414.5 1976.68,1419.89Z" style="fill:rgb(191,191,191);"/>
    </g>
    <g transform="matrix(1,0,0,1,-1891.7,-763.923)">
        <path d="M1971.28,1436.95C1998.24,1429.77 2030.35,1429.93 2058.45,1429.93C2062.42,1429.93 2084.24,1430.55 2086.2,1426.15C2089.32,1419.14 2084.84,1408.15 2084.4,1400.9C2083.83,1391.6 2082.3,1382.59 2082.3,1373.22C2082.3,1373.13 2082.37,1372.62 2082.3,1372.55C2079.55,1370.06 2065.34,1382.75 2062.95,1384.43C2042.97,1398.43 2021.27,1410.42 2000.38,1422.91C1994.36,1426.51 1988.81,1431.16 1982.83,1434.93C1979.98,1436.72 1973.83,1442.89 1973.83,1439.52" style="fill:rgb(89,89,89);"/>
        <path d="M1982.08,1429.21C1987.34,1425.69 1992.34,1421.65 1997.71,1418.44C2018.49,1406.01 2040.08,1394.1 2059.96,1380.16C2061.98,1378.75 2072.11,1369.98 2077.54,1367.83C2081.28,1366.34 2084.19,1367.23 2085.8,1368.69C2086.3,1369.14 2086.81,1369.78 2087.16,1370.67C2087.36,1371.19 2087.49,1373.6 2087.49,1373.6C2087.49,1373.6 2087.51,1373.29 2087.51,1373.22C2087.51,1382.48 2089.04,1391.38 2089.6,1400.58C2089.86,1404.85 2091.57,1410.42 2092.21,1415.69C2092.78,1420.28 2092.56,1424.67 2090.96,1428.27C2090.43,1429.45 2089.53,1430.59 2088.14,1431.54C2086.6,1432.57 2084.1,1433.48 2081.02,1434.03C2073.37,1435.41 2061.35,1435.14 2058.45,1435.14C2035.31,1435.14 2009.41,1434.98 1986.02,1439.07C1985.88,1439.16 1985.74,1439.25 1985.6,1439.34C1983.7,1440.54 1980.36,1443.57 1978.21,1444.7C1976.65,1445.53 1975.23,1445.76 1974.21,1445.71C1972.69,1445.63 1971.46,1445.05 1970.48,1444.11C1969.87,1443.53 1969.26,1442.73 1968.91,1441.59C1967.64,1440.95 1966.64,1439.78 1966.24,1438.3C1965.5,1435.52 1967.16,1432.66 1969.93,1431.92C1973.88,1430.87 1977.94,1429.97 1982.08,1429.21ZM2005.02,1426.21C2022.96,1424.69 2041.43,1424.72 2058.45,1424.72C2060.76,1424.72 2069.3,1424.95 2076.17,1424.2C2078.13,1423.99 2080.74,1423.33 2081.8,1423.05C2082.5,1420.55 2082.03,1417.54 2081.51,1414.5C2080.68,1409.77 2079.43,1405 2079.2,1401.22C2078.76,1394.04 2077.76,1387.03 2077.32,1379.9C2077.03,1380.09 2076.76,1380.27 2076.51,1380.45C2071.98,1383.66 2067.23,1387.79 2065.93,1388.69C2046.48,1402.33 2025.41,1414.07 2005.02,1426.21Z" style="fill:rgb(89,89,89);"/>
    </g>
    <g transform="matrix(1,0,0,1,-1891.7,-763.923)">
        <path d="M2511.99,1365.8C2511.97,1365.78 2513.34,1384.12 2514.09,1387.81C2516.6,1400.27 2518.08,1418.47 2525.64,1428.59C2528.16,1431.95 2540.9,1431.82 2545.44,1433.18C2568.93,1440.2 2597.32,1435.17 2621.66,1438.44C2629.94,1439.56 2638.27,1439.46 2646.41,1441.55C2646.78,1441.64 2650.21,1441.96 2650.31,1441.68C2651.62,1438.13 2624.48,1422.15 2620.16,1420.75C2590.14,1411.08 2566.85,1387.77 2538.54,1374.98C2538.44,1374.93 2511.24,1365.42 2511.24,1364.58" style="fill:rgb(89,89,89);"/>
        <path d="M2514.43,1360.46C2519.11,1362.7 2540.59,1370.19 2540.68,1370.23C2568.82,1382.94 2591.93,1406.18 2621.75,1415.8C2625.45,1416.99 2644.78,1428.1 2651.64,1434.46C2653.53,1436.21 2654.65,1437.86 2655.11,1439.03C2655.77,1440.75 2655.66,1442.25 2655.2,1443.48C2654.83,1444.48 2653.92,1446.21 2651.4,1446.82C2650.35,1447.07 2645.68,1446.74 2645.12,1446.59C2637.18,1444.56 2629.04,1444.69 2620.97,1443.61C2596.37,1440.3 2567.68,1445.26 2543.95,1438.17C2540.82,1437.23 2533.74,1437.05 2528.93,1435.87C2525.37,1434.99 2522.74,1433.41 2521.47,1431.7C2513.51,1421.05 2511.63,1401.97 2508.98,1388.84C2508.33,1385.6 2507.18,1371.4 2506.87,1367.28C2506.12,1366.06 2506.03,1364.93 2506.03,1364.58C2506.03,1361.71 2508.36,1359.37 2511.24,1359.37C2512.44,1359.37 2513.54,1359.78 2514.43,1360.46ZM2517.76,1372.99C2518.2,1378.29 2518.79,1384.77 2519.19,1386.78C2521.54,1398.43 2522.63,1415.47 2529.55,1425.11C2530.04,1425.28 2531.92,1425.9 2533.29,1426.14C2538.15,1426.99 2544.08,1427.34 2546.94,1428.19C2570.17,1435.14 2598.27,1430.04 2622.35,1433.28C2626.22,1433.8 2630.1,1434.07 2633.97,1434.42C2627.45,1430.23 2620.52,1426.34 2618.56,1425.71C2588.36,1415.98 2564.88,1392.59 2536.4,1379.73C2536.33,1379.7 2525.77,1376 2517.76,1372.99Z" style="fill:rgb(89,89,89);"/>
    </g>
    <g transform="matrix(1,0,0,1,-1891.7,-763.923)">
        <path d="M2513.18,1359.05C2510.4,1357.79 2519.29,1358.7 2522.34,1358.51C2529,1358.08 2535.87,1357.12 2542.44,1355.94C2556.29,1353.46 2570.3,1352.59 2584,1349.19C2585.19,1348.9 2595.71,1344.43 2596.45,1345.55C2609.97,1365.75 2625.05,1386.26 2633.51,1409.14C2636.14,1416.25 2639.96,1422.71 2644.91,1428.45C2646.44,1430.22 2647.91,1432.27 2649.86,1433.58C2650.88,1434.26 2653.91,1436.14 2652.72,1435.88C2646.51,1434.5 2640.74,1428.67 2635.31,1425.62C2606.89,1409.62 2579.04,1393.82 2551.14,1377.14C2545.16,1373.57 2537.69,1368.68 2530.89,1367.15C2529.19,1366.77 2519.93,1365.25 2519.93,1364.45" style="fill:rgb(140,140,140);"/>
        <path d="M2514.74,1364.02C2513.57,1364.39 2512.25,1364.34 2511.03,1363.79C2506.92,1361.93 2507.34,1358.69 2507.54,1357.63C2507.8,1356.33 2508.52,1354.71 2510.68,1353.76C2511.19,1353.53 2512.25,1353.23 2513.72,1353.17C2515.82,1353.1 2520.09,1353.43 2522.01,1353.31C2528.47,1352.9 2535.14,1351.96 2541.52,1350.82C2555.26,1348.35 2569.15,1347.51 2582.75,1344.14C2583.47,1343.96 2587.76,1342.16 2591.02,1341.14C2593.21,1340.45 2595.13,1340.13 2596.15,1340.16C2598.65,1340.26 2600.04,1341.54 2600.78,1342.65C2614.52,1363.19 2629.8,1384.08 2638.39,1407.34C2640.8,1413.85 2644.32,1419.79 2648.86,1425.05C2650.08,1426.47 2651.19,1428.2 2652.76,1429.25C2653.5,1429.75 2655.18,1430.83 2655.94,1431.45C2656.85,1432.19 2657.34,1432.93 2657.56,1433.34C2658.63,1435.32 2658.24,1436.99 2657.67,1438.16C2657.21,1439.1 2655.73,1441.89 2651.58,1440.96C2648.53,1440.28 2645.54,1438.79 2642.65,1436.93C2639.22,1434.72 2635.93,1431.94 2632.75,1430.15C2604.29,1414.13 2576.4,1398.31 2548.47,1381.61C2542.93,1378.3 2536.05,1373.65 2529.75,1372.23C2528.01,1371.84 2519.4,1370.21 2517.68,1369.27C2515.1,1367.85 2514.73,1365.68 2514.73,1364.45C2514.73,1364.3 2514.73,1364.16 2514.74,1364.02ZM2515.42,1354.34C2515.39,1354.33 2515.36,1354.32 2515.33,1354.3C2515.36,1354.32 2515.39,1354.33 2515.42,1354.34ZM2533.92,1362.56C2540.7,1364.58 2547.95,1369.17 2553.81,1372.67C2579.56,1388.06 2605.26,1402.7 2631.41,1417.44C2630.38,1415.34 2629.45,1413.17 2628.62,1410.95C2620.7,1389.51 2606.81,1370.22 2594.02,1351.26C2591.12,1352.27 2585.92,1354.08 2585.25,1354.25C2571.44,1357.67 2557.32,1358.57 2543.36,1361.07C2540.26,1361.62 2537.1,1362.13 2533.92,1362.56ZM2525.07,1363.53C2525.07,1363.53 2525.07,1363.53 2525.06,1363.53C2525.12,1363.83 2525.14,1364.13 2525.14,1364.45C2525.14,1364.15 2525.12,1363.84 2525.07,1363.53Z" style="fill:rgb(140,140,140);"/>
    </g>
    <g transform="matrix(0.840738,0,0,0.786607,-492.045,-877.623)">
        <path d="M1487.79,1978.9C1487.66,1978.81 1487.54,1978.71 1487.42,1978.63C1471.42,1967.41 1371.22,1910.32 1343.42,1890.12C1289.25,1850.76 1224.13,1825.62 1168.83,1787.89C1131.89,1762.68 1090.23,1733.79 1050.38,1706.59C1047.49,1704.63 1046.65,1700.53 1048.49,1697.45C1050.33,1694.37 1054.16,1693.47 1057.04,1695.43C1096.9,1722.63 1138.55,1751.52 1175.5,1776.73C1230.89,1814.53 1296.12,1839.74 1350.39,1879.17C1378.15,1899.34 1478.24,1956.35 1494.21,1967.56C1497.04,1969.54 1498.26,1971.39 1498.53,1971.98C1499.15,1973.36 1499.23,1974.59 1499.14,1975.58C1499,1977.15 1498.41,1978.48 1497.4,1979.58C1496.61,1980.46 1495.23,1981.64 1492.81,1981.64C1490.75,1981.64 1488.92,1980.56 1487.79,1978.9ZM1490.14,1969.04C1490.95,1968.63 1491.85,1968.39 1492.81,1968.39C1491.7,1968.39 1490.83,1968.67 1490.14,1969.04Z"/>
    </g>
    <g transform="matrix(0.840738,0,0,0.786607,-492.045,-877.623)">
        <path d="M1066.33,1306.43C1064.84,1305.38 1063.79,1303.65 1063.59,1301.61C1063.23,1297.98 1065.7,1294.71 1069.11,1294.33C1072.49,1293.95 1074.29,1294.67 1075.32,1295.34C1076.77,1296.29 1077.81,1297.6 1078.37,1299.61C1078.63,1300.52 1078.72,1302.05 1078.72,1304.52C1078.72,1334.32 1074.26,1363.83 1073.17,1393.62C1070.78,1458.85 1059.29,1522.57 1059.29,1588.53C1059.29,1613.44 1060.52,1638.4 1060.52,1663.22L1060.52,1689.87C1060.52,1691.01 1061.15,1696.35 1061.4,1698.49C1061.63,1699.18 1061.75,1699.92 1061.75,1700.69C1061.75,1709.18 1053.25,1707.25 1052.44,1706.75C1052.06,1706.52 1050.01,1705.38 1049.37,1702.05C1049.03,1700.26 1048.13,1691.72 1048.13,1689.87L1048.13,1663.22C1048.13,1638.4 1046.9,1613.44 1046.9,1588.53C1046.9,1522.39 1058.39,1458.5 1060.79,1393.1C1061.85,1364.12 1066.14,1335.4 1066.33,1306.43ZM1049.49,1699.34C1049.41,1699.72 1049.36,1700.17 1049.36,1700.69C1049.36,1700.23 1049.41,1699.77 1049.49,1699.34Z"/>
    </g>
    <g transform="matrix(0.840738,0,0,0.786607,-492.045,-877.623)">
        <path d="M678.277,1972.59C676.422,1975.44 672.788,1976.28 669.979,1974.46C667.058,1972.56 666.129,1968.48 667.905,1965.36C668.528,1964.27 669.73,1962.82 671.618,1961.3C674.279,1959.15 678.814,1956.35 684.377,1953.26C701.508,1943.75 729.027,1931.04 736.789,1926.01C804.884,1881.85 864.146,1839.93 926.998,1788.74C955.143,1765.82 1021.28,1717.54 1050.12,1695.62C1052.9,1693.5 1056.78,1694.2 1058.76,1697.17C1060.74,1700.15 1060.09,1704.29 1057.3,1706.41C1028.54,1728.27 962.577,1776.41 934.508,1799.27C871.297,1850.75 811.699,1892.91 743.216,1937.33C735.345,1942.43 707.461,1955.36 690.089,1965.01C684.591,1968.06 678.798,1972.22 678.277,1972.59Z"/>
    </g>
    <g transform="matrix(0.840738,0,0,0.786607,-492.045,-877.623)">
        <path d="M1023.63,1348.44L1023.63,1348.43C1030.8,1336.7 1048.63,1311.54 1065.69,1293.92C1067.9,1291.64 1071.18,1290.63 1074.93,1293.51C1077.46,1295.46 1081.71,1302.73 1082.6,1303.97C1104.28,1334.29 1112.91,1368.07 1135.35,1396.81C1177.37,1450.62 1223.07,1500.26 1260.71,1557.63C1306.64,1627.64 1340.77,1704.94 1386.03,1775.4C1399.56,1796.47 1452.2,1871.46 1480.34,1926.35C1487.79,1940.88 1493.54,1954.06 1496.54,1964.57C1498.85,1972.66 1499.51,1979.42 1498.58,1984.33C1497.98,1987.45 1496.28,1989.2 1493.93,1990.1C1492.7,1990.58 1491.02,1990.76 1489.11,1990.39C1488,1990.18 1485.65,1989.5 1485.37,1989.42C1466.62,1989.41 1447.9,1986.38 1429.3,1984.19C1359.85,1976.02 1291,1964.57 1220.86,1962.81C1125.22,1960.41 1027.55,1959.43 932.079,1965.39C854.766,1970.22 782.999,1976.87 705.568,1979.55C692.58,1979.99 674.079,1984.02 661.668,1984.02C658.789,1984.02 657.278,1982.67 656.424,1981.67C655.087,1980.11 654.42,1978.14 654.839,1975.7C655.013,1974.69 655.546,1973.15 656.82,1971.58C657.929,1970.21 660.64,1968.16 661.459,1966.75C664.874,1960.89 668.677,1955.27 671.974,1949.34C680.304,1934.35 686.795,1918.47 695.342,1903.59C721.447,1858.15 751.41,1815.01 775.262,1768.4C848.582,1625.13 924.746,1476.04 1023.63,1348.44ZM674.304,1969.87C684.659,1968.65 696.23,1966.62 705.168,1966.31C782.488,1963.64 854.154,1957 931.356,1952.17C1027.17,1946.19 1125.18,1947.16 1221.15,1949.57C1291.65,1951.34 1360.86,1962.82 1430.65,1971.03C1448.85,1973.17 1467.17,1976.18 1485.53,1976.18C1485.78,1976.18 1486.09,1976.21 1486.43,1976.26C1486.13,1973.94 1485.51,1971.32 1484.69,1968.43C1481.88,1958.6 1476.44,1946.31 1469.48,1932.71C1441.54,1878.22 1389.24,1803.81 1375.81,1782.89C1330.58,1712.47 1296.47,1635.2 1250.56,1565.23C1213.13,1508.17 1167.63,1458.82 1125.84,1405.3C1103.28,1376.41 1094.55,1342.49 1072.76,1312.01C1072.38,1311.49 1071.37,1309.72 1070.18,1307.83C1055.02,1324.44 1040,1345.79 1033.83,1355.96C1033.7,1356.18 1033.55,1356.39 1033.4,1356.59C934.909,1483.61 859.136,1632.1 786.132,1774.75C762.181,1821.56 732.114,1864.89 705.9,1910.52C697.385,1925.34 690.925,1941.17 682.626,1956.1C680.019,1960.8 677.103,1965.29 674.304,1969.87Z"/>
    </g>
</svg>
