<?xml version="1.0" encoding="UTF-8" standalone="no"?>
<!DOCTYPE svg PUBLIC "-//W3C//DTD SVG 1.1//EN" "http://www.w3.org/Graphics/SVG/1.1/DTD/svg11.dtd">
<svg width="100%" height="100%" viewBox="0 0 827 827" version="1.1" xmlns="http://www.w3.org/2000/svg" xmlns:xlink="http://www.w3.org/1999/xlink" xml:space="preserve" xmlns:serif="http://www.serif.com/" style="fill-rule:evenodd;clip-rule:evenodd;stroke-linejoin:round;stroke-miterlimit:2;">
    <g transform="matrix(1.01616,0,0,1.03096,-303.826,-817.696)">
        <path d="M657.514,915.987C657.514,939.676 470.28,1228.86 443.221,1280.57C425.3,1314.83 403.982,1344.05 381.946,1375.67C380.841,1377.26 358.548,1408.93 361.771,1410.68C388.416,1425.15 765.724,1413.98 824.103,1413.98C877.049,1413.98 929.778,1423.71 982.624,1426.2C999.919,1427.02 1017.38,1426.53 1034.72,1426.53C1040.59,1426.53 1046.21,1426.79 1051.97,1427.53C1054.89,1427.91 1063.46,1429.39 1060.77,1428.19C1035.06,1416.72 828.661,1134.79 802.815,1098.28C772.715,1055.75 739.907,1011.38 707.782,970.805C692.89,951.994 679.497,935.879 661.917,919.947C660.85,918.98 655.716,917.591 657.514,915.987Z" style="fill:white;"/>
    </g>
    <g transform="matrix(1.01616,0,0,1.03096,-303.826,-817.696)">
        <path d="M421.245,1324.44C421.245,1323.55 427.479,1323.92 428.428,1323.84C447.207,1322.26 466.213,1323.39 485.036,1322.34C491.743,1321.96 497.713,1324.53 504.437,1324.53C506.73,1324.53 518.791,1323.81 517.994,1324.53C502.344,1338.49 473.896,1342.66 454.976,1350.44C435.23,1358.56 419.063,1374.75 399.04,1382.45C392.63,1384.92 383.754,1387.44 378.162,1391.47C375.373,1393.48 372.497,1395.14 370.649,1397.63C370.402,1397.96 369.078,1400.58 368.816,1400.34C368.159,1399.74 381.155,1386.53 382.175,1385.46C390.177,1377.07 397.17,1365.82 403.378,1356C407.245,1349.88 411.954,1344 415.234,1337.52C420.456,1327.2 421.916,1326.51 421.916,1328.35" style="fill:rgb(191,191,191);"/>
        <path d="M366.195,1395.15C366.346,1394.9 366.464,1394.71 366.51,1394.65C367.227,1393.68 368.067,1392.81 368.988,1391.99C372.832,1387.78 377.808,1382.66 378.439,1382C386.222,1373.84 392.99,1362.88 399.028,1353.33C402.811,1347.34 407.439,1341.6 410.648,1335.26C413.206,1330.21 415.041,1327.22 416.256,1325.6C416.167,1325.23 416.12,1324.84 416.12,1324.44C416.12,1322.81 416.743,1321.06 418.827,1319.85C419.423,1319.51 420.457,1319.11 421.821,1318.94C423.747,1318.7 427.285,1318.86 427.992,1318.8C446.818,1317.22 465.873,1318.35 484.744,1317.29C491.551,1316.91 497.614,1319.47 504.437,1319.47C506.101,1319.47 512.868,1319.11 516.228,1319.16C517.715,1319.19 518.815,1319.36 519.313,1319.5C521.802,1320.22 522.594,1321.93 522.909,1322.9C523.416,1324.45 523.497,1326.43 521.434,1328.27C513.126,1335.68 501.474,1340.6 489.334,1344.6C478.025,1348.32 466.307,1351.26 456.95,1355.11C437.168,1363.24 420.964,1379.44 400.905,1387.16C394.865,1389.48 386.455,1391.75 381.187,1395.55C379.873,1396.5 378.508,1397.31 377.288,1398.22C376.128,1399.48 375.092,1400.6 374.374,1401.37C374.026,1401.96 373.601,1402.66 373.335,1403.02C372.717,1403.85 372.064,1404.35 371.647,1404.61C369.012,1406.24 366.873,1405.44 365.346,1404.06C364.536,1403.32 362.408,1400.68 364.655,1397.13C364.94,1396.68 365.483,1395.99 366.195,1395.15ZM426.297,1325.3C426.298,1325.3 426.299,1325.3 426.299,1325.3C426.348,1325.02 426.371,1324.73 426.371,1324.44C426.371,1324.73 426.345,1325.02 426.297,1325.3ZM427.009,1328.92C426.782,1330.91 425.385,1332.55 423.515,1333.15C422.613,1334.63 421.214,1337.02 419.821,1339.77C416.468,1346.39 411.679,1352.42 407.728,1358.67C403.615,1365.17 399.155,1372.28 394.301,1378.82C395.296,1378.46 396.259,1378.1 397.176,1377.75C417.163,1370.05 433.292,1353.89 453.002,1345.78C462.565,1341.85 474.531,1338.81 486.089,1335.01C491.196,1333.33 496.228,1331.51 500.891,1329.36C495.653,1328.74 490.735,1327.08 485.327,1327.38C466.552,1328.43 447.595,1327.29 428.865,1328.87C428.635,1328.89 427.892,1328.91 427.009,1328.92Z" style="fill:rgb(191,191,191);"/>
    </g>
    <g transform="matrix(1.01616,0,0,1.03096,-303.826,-817.696)">
        <path d="M373.489,1409.35C373.489,1405.68 394.539,1409.8 398.204,1409.8C417.118,1409.8 460.532,1419.31 477.186,1411.76C498.167,1402.25 495.077,1371.19 508.583,1351.64C509.535,1350.26 517.935,1330.68 516.763,1330.15C510.398,1327.31 492.242,1342.09 486.874,1345.18C459.591,1360.9 434.277,1379.46 405.381,1392.52C400.078,1394.92 376.756,1402.23 374.155,1406.8C374.032,1407.01 373.825,1406.81 373.825,1407.1" style="fill:rgb(89,89,89);"/>
        <path d="M368.707,1407.38C368.702,1407.29 368.699,1407.19 368.699,1407.1C368.699,1405.42 369.307,1404.51 369.784,1403.9C369.95,1403.68 370.184,1403.47 370.451,1403.28C371.962,1401.56 374.911,1399.47 378.807,1397.61C386.924,1393.72 399.516,1389.62 403.245,1387.93C431.986,1374.94 457.15,1356.45 484.287,1340.82C488.118,1338.61 498.36,1330.61 506.372,1326.97C511.436,1324.68 516.005,1324.27 518.876,1325.55C520.007,1326.06 522.47,1327.74 521.919,1331.56C521.352,1335.49 513.764,1353.12 512.819,1354.48C506.348,1363.85 503.979,1376.02 500.589,1386.94C496.596,1399.81 491.165,1410.99 479.327,1416.35C472.106,1419.62 460.265,1420.17 447.317,1419.37C429.516,1418.27 409.479,1414.85 398.204,1414.85C395.48,1414.85 382.829,1412.39 377.129,1412.91C376.2,1413.83 374.912,1414.4 373.489,1414.4C370.66,1414.4 368.363,1412.14 368.363,1409.35C368.363,1408.71 368.471,1408.04 368.707,1407.38ZM371.17,1402.82C372.079,1402.3 373.026,1401.95 373.026,1401.95C373.026,1401.95 372.102,1402.21 371.17,1402.82ZM389.891,1403.83C393.679,1404.3 396.941,1404.75 398.204,1404.75C409.625,1404.75 429.926,1408.17 447.958,1409.29C458.899,1409.96 468.943,1409.93 475.045,1407.17C484.19,1403.03 487.702,1393.92 490.786,1383.99C494.472,1372.11 497.312,1358.98 504.347,1348.8C504.794,1348.15 507.235,1341.93 509.197,1336.85C508.655,1337.13 508.104,1337.42 507.547,1337.73C500.457,1341.65 492.668,1347.69 489.46,1349.54C462.031,1365.35 436.569,1383.98 407.518,1397.12C404.738,1398.37 396.988,1400.98 389.891,1403.83Z" style="fill:rgb(89,89,89);"/>
    </g>
    <g transform="matrix(1.01616,0,0,1.03096,-303.826,-817.696)">
        <path d="M657.868,928.578C660.258,926.445 653.404,933.234 651.692,935.942C648.008,941.767 644.495,947.751 641.839,954.129C634.273,972.304 620.675,990.623 611.614,1007.33C609.127,1011.92 640.818,1052.09 645.138,1057.28C649.284,1062.26 663.737,1079.62 663.737,1079.62C663.737,1079.62 655.198,1056.49 655.198,1045.36C655.198,1018.87 654.625,993.455 659.371,967.504C661.026,958.45 660.708,948.93 660.708,939.701L660.708,930.081C660.708,929.402 660.708,925.391 660.708,927.075" style="fill:rgb(191,191,191);"/>
        <path d="M653.419,926.068C653.68,925.618 654.017,925.2 654.428,924.833C655.297,924.057 656.149,923.611 656.953,923.393C657.933,922.703 659.321,922.791 660.708,923.234C663.173,922.446 665.637,922.781 665.823,926.602C665.83,926.629 665.834,926.653 665.834,926.676L665.834,939.701C665.834,949.229 666.124,959.054 664.415,968.4C659.724,994.051 660.324,1019.17 660.324,1045.36C660.324,1055.94 668.553,1077.89 668.553,1077.89C669.408,1080.2 668.445,1082.79 666.275,1084C664.105,1085.22 661.359,1084.72 659.775,1082.82L641.176,1060.48C637.657,1056.26 616.321,1029.21 609.216,1016.18C607.634,1013.28 606.713,1010.88 606.461,1009.32C606.153,1007.42 606.544,1005.96 607.094,1004.95C616.079,988.382 629.594,970.234 637.097,952.211C639.862,945.571 643.507,939.334 647.342,933.27C648.43,931.549 651.813,927.811 653.419,926.068ZM655.583,939.342C652.217,944.698 649.017,950.196 646.581,956.047C639.155,973.884 625.999,991.875 616.878,1008.35C617.558,1009.79 619.334,1013.41 621.283,1016.47C629.9,1030 646.117,1050.49 649.1,1054.07C649.1,1054.07 651.748,1057.25 651.748,1057.25C650.758,1052.84 650.073,1048.61 650.073,1045.36C650.073,1018.56 649.527,992.858 654.327,966.608C655.929,957.847 655.583,948.632 655.583,939.701L655.583,939.342Z" style="fill:rgb(191,191,191);"/>
    </g>
    <g transform="matrix(1.01616,0,0,1.03096,-303.826,-817.696)">
        <path d="M664.066,1079.59C665.741,1067.39 703.52,1032.41 713.809,1020.1C718.129,1014.94 735.654,999.926 727.834,995.456C721.277,991.708 712.39,983.732 707.45,975.506C702.374,967.053 695.153,958.208 686.937,952.667C679.209,947.455 674.297,932.489 666.884,929.182C666.834,929.16 666.746,929.134 666.719,929.182C661.254,939.087 665.051,959.006 665.051,970.21C665.051,996.061 666.278,1015.92 664.066,1041.33C663.325,1049.83 664.066,1080.61 664.066,1079.59Z" style="fill:rgb(140,140,140);"/>
        <path d="M669.187,1079.65C669.177,1079.73 669.151,1079.81 669.11,1079.9C668.845,1081.57 667.753,1082.15 666.378,1082.16C663.463,1083.72 659.283,1084.42 658.941,1079.52C658.932,1079.39 658.926,1079.26 658.922,1079.13C658.807,1074.74 658.283,1048.66 658.959,1040.89C661.158,1015.65 659.926,995.904 659.926,970.21C659.926,963.475 658.559,953.596 658.646,944.628C658.713,937.737 659.692,931.344 662.216,926.769C662.98,925.385 664.183,924.512 665.751,924.203C666.714,924.013 668.112,924.184 668.998,924.58C672.681,926.223 676.066,929.989 679.177,934.563C682.567,939.547 685.648,945.677 689.831,948.498C698.636,954.436 706.42,963.873 711.861,972.933C716.355,980.417 724.44,987.676 730.406,991.086C732.588,992.333 733.839,994.002 734.479,995.873C735.236,998.087 735.071,1000.82 733.777,1003.77C730.872,1010.42 720.968,1019.49 717.764,1023.32C710.572,1031.92 689.925,1051.62 677.612,1066.84C673.089,1072.43 669.575,1077.14 669.145,1080.27L669.187,1079.65ZM668.882,1061.43C669.117,1061.14 669.355,1060.84 669.597,1060.54C681.944,1045.27 702.641,1025.52 709.854,1016.89C712.371,1013.88 719.544,1007.46 723.209,1001.84C723.692,1001.1 724.174,1000.02 724.452,999.35C717.397,995.091 708.224,986.712 703.039,978.079C698.327,970.232 691.67,961.98 684.043,956.837C679.693,953.903 675.988,948.344 672.475,942.933C671.414,941.299 670.362,939.69 669.283,938.235C669.016,940.272 668.918,942.467 668.896,944.725C668.81,953.659 670.177,963.5 670.177,970.21C670.177,996.219 671.398,1016.2 669.173,1041.76C668.846,1045.51 668.816,1053.66 668.882,1061.43Z" style="fill:rgb(140,140,140);"/>
    </g>
    <g transform="matrix(1.01616,0,0,1.03096,-303.826,-817.696)">
        <path d="M657.128,925.644C656.386,923.75 656.852,921.518 658.469,920.075C660.189,918.54 661.936,918.513 663.421,918.935C664.4,919.213 666.537,920.08 667.18,923.087C667.781,925.905 666.605,943.971 666.225,946.59C664.133,961.022 663.753,976.115 663.753,990.672C663.753,1039.02 668.132,1089.12 673.093,1137.23C674.645,1152.28 675.244,1231.06 673.657,1240.56C672.81,1245.64 668.398,1245.82 667.388,1245.65C666.525,1245.5 664.011,1244.93 663.052,1241.5C662.674,1240.14 662.894,1238.76 663.555,1237.63C663.655,1226.87 664.297,1151.85 662.895,1138.25C657.899,1089.81 653.502,1039.36 653.502,990.672C653.502,975.643 653.917,960.061 656.077,945.16C656.369,943.149 657.007,928.484 657.128,925.644ZM661.992,928.87C663.063,928.9 664.213,928.579 665.349,927.565C664.39,928.421 663.192,928.852 661.992,928.87Z"/>
    </g>
    <g transform="matrix(1.01616,0,0,1.03096,-303.826,-817.696)">
        <path d="M360.818,1403.84C368.084,1400.87 403.412,1381.55 417.344,1374.37C473.277,1345.57 537.216,1317.21 585.64,1277.27C590.212,1273.5 632.914,1254.95 654.05,1243.93C656.944,1242.42 659.9,1240.63 661.772,1239.45C662.145,1236.84 664.525,1234.92 667.235,1235.12C670.149,1235.34 671.54,1236.75 672.215,1237.77C673.273,1239.36 673.896,1241.74 671.775,1244.45C671.122,1245.29 669.79,1246.49 667.767,1247.81C664.445,1249.98 658.763,1252.99 651.91,1256.37C630.23,1267.08 596.205,1281.73 592.219,1285.02C543.248,1325.41 478.654,1354.2 422.091,1383.33C407.952,1390.61 372.068,1410.18 364.725,1413.18C361.614,1414.45 359.486,1413.56 359.005,1413.3C357.786,1412.64 357.039,1411.68 356.628,1410.56C355.673,1407.93 357.06,1405.04 359.723,1404.09C360.085,1403.97 360.452,1403.88 360.818,1403.84ZM364.737,1404.97C365.416,1405.53 365.958,1406.27 366.278,1407.15C365.972,1406.31 365.478,1405.56 364.737,1404.97Z"/>
    </g>
    <g transform="matrix(1.01616,0,0,1.03096,-303.826,-817.696)">
        <path d="M1048.82,1426.88C1048.14,1426.49 1046.65,1425.63 1045.08,1424.81C1013.11,1408.1 840.664,1329.18 785.761,1303.31C755.558,1289.08 677.62,1252.45 666.562,1244.81C664.245,1243.2 663.684,1240.05 665.308,1237.77C666.932,1235.49 670.131,1234.93 672.447,1236.53C683.365,1244.08 760.364,1280.14 790.183,1294.19C845.167,1320.11 1017.86,1399.15 1049.88,1415.89C1052.85,1417.44 1054.75,1418.56 1055.48,1419.12C1056.69,1420.05 1057.15,1420.98 1057.35,1421.46C1057.85,1422.66 1057.81,1423.72 1057.6,1424.6C1057.3,1425.86 1056.59,1426.97 1055.26,1427.77C1053.14,1429.05 1050.44,1428.62 1048.82,1426.88ZM1047.66,1422.09C1048,1420.9 1048.77,1419.84 1049.91,1419.15C1048.67,1419.9 1047.96,1420.91 1047.66,1422.09Z"/>
    </g>
    <g transform="matrix(1.01616,0,0,1.03096,-303.826,-817.696)">
        <path d="M652.098,917.682C652.046,917.387 652.018,917.094 652.011,916.804C651.98,915.364 652.388,913.746 654.074,912.241C655.577,910.901 657.74,910.558 659.592,911.369C660.936,911.956 661.933,913.069 662.38,914.399C662.753,914.587 663.12,914.773 663.37,914.9C664.256,915.353 664.951,915.834 665.386,916.228C683.181,932.354 696.749,948.656 711.823,967.697C744.003,1008.35 776.867,1052.79 807.019,1095.39C827.671,1124.57 963.74,1310.63 1030.49,1389.75C1040.39,1401.48 1048.74,1410.84 1054.94,1416.93C1058.5,1420.43 1061.13,1422.81 1062.89,1423.59C1067.16,1425.49 1066.47,1428.95 1066.26,1429.78C1065.94,1431.02 1065.1,1432.86 1062.4,1433.52C1061.94,1433.63 1060.99,1433.75 1059.7,1433.66C1057.56,1433.5 1053.24,1432.79 1051.31,1432.54C1045.77,1431.83 1040.37,1431.59 1034.72,1431.59C1017.3,1431.59 999.755,1432.07 982.379,1431.25C929.615,1428.76 876.968,1419.04 824.103,1419.04C777.376,1419.04 526.429,1426.18 414.27,1421.63C394.35,1420.82 378.746,1419.63 369.319,1417.99C364.58,1417.17 361.201,1416.14 359.297,1415.11C358.051,1414.43 357.088,1413.37 356.602,1411.81C356.223,1410.59 356.298,1407.88 357.844,1404.46C362.04,1395.18 376.815,1374.12 377.721,1372.81C399.633,1341.37 420.845,1312.32 438.666,1278.26C460.32,1236.87 584.516,1043.45 633.33,955.609C640.554,942.608 646.111,931.955 649.396,924.5C650.675,921.597 651.641,919.315 652.098,917.682ZM660.181,925.25C657.1,932.926 650.85,945.112 642.321,960.462C593.539,1048.25 469.416,1241.53 447.777,1282.89C429.754,1317.33 408.331,1346.73 386.171,1378.53C385.485,1379.52 376.496,1392.29 370.736,1402.03C369.689,1403.8 368.655,1405.84 367.877,1407.45C369.813,1407.88 372.291,1408.28 375.252,1408.68C384.553,1409.93 398.081,1410.86 414.692,1411.53C526.735,1416.08 777.424,1408.93 824.103,1408.93C877.131,1408.93 929.942,1418.66 982.869,1421.16C1000.08,1421.97 1017.47,1421.48 1034.72,1421.48C1038.36,1421.48 1041.9,1421.58 1045.44,1421.82C1039.36,1415.6 1031.6,1406.86 1022.61,1396.21C955.703,1316.9 819.312,1130.42 798.612,1101.17C768.563,1058.72 735.811,1014.42 703.741,973.913C689.524,955.954 676.701,940.474 660.181,925.25Z"/>
    </g>
</svg>
