<?xml version="1.0" encoding="UTF-8" standalone="no"?>
<!DOCTYPE svg PUBLIC "-//W3C//DTD SVG 1.1//EN" "http://www.w3.org/Graphics/SVG/1.1/DTD/svg11.dtd">
<svg width="100%" height="100%" viewBox="0 0 827 827" version="1.1" xmlns="http://www.w3.org/2000/svg" xmlns:xlink="http://www.w3.org/1999/xlink" xml:space="preserve" xmlns:serif="http://www.serif.com/" style="fill-rule:evenodd;clip-rule:evenodd;stroke-linejoin:round;stroke-miterlimit:2;">
    <g transform="matrix(1.07256,0,0,1.0054,-1209.47,-160.409)">
        <path d="M1215.99,802.378C1211.03,799.41 1219.16,789.976 1221.49,786.197C1264.68,716.354 1310.99,647.822 1357.63,580.131C1399.54,519.302 1440.8,458.129 1481.65,396.85C1495.66,375.841 1502.05,351.241 1516.87,331.127C1518.59,328.796 1533.04,304.903 1533.38,305.369C1556.46,336.742 1564.58,379.495 1586.95,411.704C1641.31,489.952 1700.95,561.462 1739.97,649.156C1753.4,679.334 1776.73,703.19 1793.91,731.049C1807.33,752.821 1814.62,777.599 1825.46,800.404C1826.15,801.856 1833.38,821.92 1831.34,822.531C1780.19,837.822 1718.27,822.949 1665.48,824.834C1562.07,828.527 1457.2,836.068 1353.95,836.068C1347.26,836.068 1202.98,830.464 1194.7,823.189C1193.93,822.506 1195.19,819.06 1195.44,818.559C1203.53,802.249 1218.65,789.378 1227.36,773.647" style="fill:white;"/>
    </g>
    <g transform="matrix(1.01899,0,0,1.06806,-1116.61,-212.804)">
        <path d="M1517.34,550.308C1514.21,550.308 1506.48,566.866 1504.31,569.993C1490,590.576 1476.88,612.626 1463.4,633.866C1455.89,645.697 1445.03,659.105 1440.19,672.337C1438.52,676.896 1434.91,680.17 1432.67,684.209C1432.62,684.311 1429.41,688.591 1429.83,688.722C1431.58,689.263 1456.16,674.716 1459.72,672.941C1484.21,660.738 1503.67,660.031 1509.75,648.015C1514.54,638.532 1507.88,619.762 1510.32,598.245C1511.48,587.977 1513.73,577.956 1514.83,567.891C1515.24,564.158 1516.27,558.406 1518.5,555.415C1518.75,555.09 1518.89,554.816 1518.5,554.816" style="fill:rgb(191,191,191);"/>
        <path d="M1428.27,681.729C1430.4,677.995 1433.81,674.975 1435.36,670.731C1440.31,657.197 1451.35,643.441 1459.03,631.34C1472.55,610.043 1485.7,587.935 1500.05,567.297C1501.82,564.743 1507.28,553.434 1511,549.003C1513.26,546.322 1515.79,545.431 1517.34,545.431C1520.16,545.431 1522.45,547.616 1522.45,550.308C1522.45,550.681 1522.4,551.045 1522.32,551.394C1522.54,551.619 1522.73,551.848 1522.89,552.064C1523.7,553.16 1524.51,555.772 1522.67,558.245C1520.86,560.666 1520.25,565.379 1519.91,568.4C1518.81,578.47 1516.57,588.496 1515.4,598.769C1513.97,611.364 1515.78,622.993 1516.42,632.28C1516.92,639.638 1516.58,645.735 1514.35,650.133C1511.43,655.919 1506.1,659.727 1498.66,662.914C1489.46,666.854 1476.67,669.997 1462.09,677.264C1459.23,678.687 1442.89,688.302 1435.57,691.815C1433.49,692.813 1431.88,693.369 1431.08,693.511C1429.83,693.733 1428.88,693.555 1428.26,693.361C1426.95,692.958 1425.97,692.181 1425.32,691.037C1424.9,690.311 1424.4,689.078 1424.85,687.367C1425.08,686.518 1427.69,682.591 1428.27,681.729ZM1516.23,559.182C1516.22,559.185 1516.22,559.188 1516.22,559.191C1516.8,559.49 1517.54,559.692 1518.5,559.692C1517.68,559.692 1516.91,559.508 1516.23,559.182ZM1509.22,571.655C1508.97,572.079 1508.75,572.429 1508.57,572.688C1494.29,593.216 1481.22,615.209 1467.77,636.392C1460.43,647.953 1449.74,661.014 1445.01,673.944C1444.74,674.692 1444.42,675.408 1444.06,676.101C1450.06,672.725 1455.79,669.402 1457.36,668.619C1469.81,662.416 1480.97,659.117 1489.8,655.86C1497.03,653.191 1502.61,650.901 1505.14,645.896C1506.76,642.707 1506.58,638.248 1506.22,632.913C1505.55,623.16 1503.74,610.946 1505.24,597.72C1506.24,588.911 1508.03,580.285 1509.22,571.655Z" style="fill:rgb(191,191,191);"/>
    </g>
    <g transform="matrix(1.01899,0,0,1.06806,-1116.61,-212.804)">
        <path d="M1437.02,694.129C1437.02,694.408 1440.39,694.279 1440.85,694.279L1484.94,694.279C1494.15,694.279 1564.93,690.901 1568.43,687.819C1570.33,686.152 1551.81,676.766 1550.07,676.097C1538.97,671.843 1529.69,663.158 1518.67,659.412C1498.48,652.552 1481.43,667.787 1465.24,679.551C1459.8,683.505 1454.05,687.675 1448.54,690.974C1447.69,691.478 1443.03,692.384 1443.03,693.081" style="fill:rgb(89,89,89);"/>
        <path d="M1438.33,689.415C1438.62,689.413 1439.09,689.411 1439.55,689.408C1439.61,689.355 1439.67,689.303 1439.73,689.251C1440.16,688.876 1440.86,688.412 1441.82,688.022C1442.9,687.578 1445.53,686.822 1446.15,686.645C1451.44,683.452 1456.93,679.458 1462.14,675.672C1470.46,669.628 1479.02,662.725 1488.07,658.182C1498.16,653.121 1508.83,650.893 1520.38,654.818C1531.47,658.585 1540.81,667.294 1551.97,671.572C1553.49,672.154 1566.67,678.83 1570.83,682.396C1575.09,686.039 1573.58,689.924 1571.9,691.405C1571.35,691.886 1570.27,692.572 1568.54,693.056C1566.83,693.535 1563.83,694.041 1559.93,694.512C1539.55,696.976 1492.37,699.155 1484.94,699.155L1440.85,699.155C1440.24,699.155 1436.23,699.072 1435.43,698.808C1432.38,697.798 1431.9,695.519 1431.9,694.129C1431.9,691.438 1434.19,689.253 1437.02,689.253C1437.47,689.253 1437.91,689.309 1438.33,689.415ZM1459.99,689.402L1484.94,689.402C1492.03,689.402 1535.9,687.383 1556.8,685.05C1552.88,682.865 1548.89,680.903 1548.16,680.622C1537.12,676.391 1527.92,667.731 1516.95,664.006C1508.32,661.071 1500.37,663.03 1492.83,666.813C1484.26,671.113 1476.21,677.71 1468.33,683.43C1465.61,685.413 1462.8,687.447 1459.99,689.402Z" style="fill:rgb(89,89,89);"/>
    </g>
    <g transform="matrix(1.01899,0,0,1.06806,-1116.61,-212.804)">
        <path d="M1518.74,559.742C1514.34,582.225 1516,604.976 1516,627.907C1516,631.04 1507.99,645.747 1510.1,647.723C1512.04,649.538 1515.53,649.829 1518.17,650.85C1528.8,654.97 1539.52,664.421 1549.23,670.535C1556.74,675.261 1563.5,680.702 1571.44,684.364C1571.65,684.463 1574.02,685.422 1574.28,684.963C1578.5,677.55 1566.37,662.936 1564.09,656.107C1554.68,627.861 1542.84,600.398 1529.69,573.902C1528.06,570.614 1526.72,553.807 1525.02,552.26C1521.45,549.026 1518.84,560.339 1518.84,562.479" style="fill:rgb(140,140,140);"/>
        <path d="M1510.89,627.692C1510.88,604.532 1509.27,581.555 1513.72,558.846C1513.9,557.935 1514.33,557.13 1514.94,556.487C1515.71,553.881 1516.82,551.127 1518.13,549.573C1519.83,547.562 1521.93,546.758 1523.91,546.808C1525.36,546.845 1526.97,547.306 1528.54,548.724C1529.23,549.353 1530.34,551.043 1530.98,553.683C1531.76,556.885 1532.5,562.333 1533.24,566.763C1533.62,569.036 1533.9,570.984 1534.31,571.815C1547.56,598.508 1559.48,626.175 1568.96,654.629C1570.3,658.641 1575.15,665.377 1577.89,671.707C1580.44,677.586 1581.07,683.246 1578.77,687.289C1578.02,688.608 1576.49,690.011 1573.81,689.962C1572.43,689.937 1569.53,688.9 1569.21,688.754C1561.08,684.998 1554.11,679.452 1546.41,674.605C1536.97,668.656 1526.59,659.377 1516.24,655.368C1514.73,654.779 1512.91,654.455 1511.29,653.904C1509.45,653.272 1507.8,652.401 1506.52,651.201C1505.34,650.093 1504.2,647.712 1504.88,644.295C1505.51,641.157 1507.68,636.057 1509.37,631.913C1510.05,630.224 1510.78,628.024 1510.89,627.692ZM1522.8,566.195C1519.69,586.571 1521.11,607.166 1521.11,627.907C1521.11,629.581 1519.44,634.118 1517.55,638.729C1516.66,640.899 1515.77,643.11 1515.23,644.922C1515.53,644.993 1515.84,645.058 1516.15,645.141C1517.5,645.509 1518.88,645.861 1520.09,646.332C1531.01,650.563 1542.07,660.187 1552.04,666.465C1557.96,670.191 1563.39,674.395 1569.35,677.754C1569.1,676.995 1568.79,676.219 1568.45,675.433C1565.59,668.832 1560.61,661.768 1559.22,657.585C1549.87,629.548 1538.12,602.289 1525.07,575.988C1524.38,574.588 1523.61,571.141 1522.96,567.183C1522.91,566.866 1522.86,566.536 1522.8,566.195Z" style="fill:rgb(140,140,140);"/>
    </g>
    <g transform="matrix(1.01899,0,0,1.06806,-1116.61,-212.804)">
        <path d="M1717.38,770.478C1717.26,770.042 1718.56,773.759 1719.72,775.585C1722.42,779.812 1724.97,784.148 1727.4,788.511C1730.79,794.592 1742.92,823.196 1746.61,826.533C1749.15,828.841 1828.02,828.062 1831.43,821.875C1834.43,816.441 1810.5,811.57 1806.89,809.704C1785.18,798.466 1760.62,792.497 1739.43,780.548C1736.58,778.943 1719.89,772.814 1719.89,768.671" style="fill:rgb(89,89,89);"/>
        <path d="M1715.81,765.728C1716.75,764.554 1718.23,763.794 1719.89,763.794C1722.27,763.794 1724.28,765.354 1724.84,767.46C1725.42,767.904 1727.15,769.206 1728.51,769.962C1733.61,772.783 1740.32,775.384 1742.03,776.35C1763.17,788.268 1787.67,794.208 1809.33,805.418C1810.97,806.266 1817.07,807.703 1822.63,809.608C1827.29,811.201 1831.58,813.152 1833.82,815.096C1837.1,817.944 1837.63,821.118 1835.96,824.146C1835.28,825.373 1833.6,826.984 1830.47,828.021C1826.92,829.2 1820.46,830.191 1812.57,830.901C1792.68,832.69 1763.28,832.973 1751.39,832.179C1748.42,831.981 1746.33,831.648 1745.38,831.345C1744.24,830.982 1743.52,830.462 1743.09,830.069C1741.79,828.891 1739.42,825.134 1736.87,820.123C1731.86,810.242 1725.25,795.033 1722.89,790.801C1720.5,786.52 1718,782.266 1715.36,778.119C1714.31,776.485 1713.03,773.26 1712.74,772.519C1712.62,772.262 1712.52,771.992 1712.44,771.709C1711.87,769.62 1712.7,768.473 1712.78,768.301C1713.54,766.818 1714.61,766.041 1715.81,765.728ZM1718.21,775.29C1718.34,775.277 1718.45,775.259 1718.57,775.238C1718.57,775.233 1718.56,775.229 1718.56,775.224C1718.44,775.25 1718.33,775.272 1718.21,775.29ZM1729.05,781.2C1730.02,782.867 1730.98,784.542 1731.91,786.221C1734.3,790.502 1741,805.879 1746.08,815.873C1747.48,818.638 1748.62,820.958 1749.49,822.22C1758.02,823.298 1790.41,823.098 1811.61,821.191C1815.11,820.876 1818.84,820.287 1821.83,819.744C1815.2,817.158 1806.53,815.065 1804.45,813.99C1782.69,802.724 1758.08,796.725 1736.83,784.746C1735.72,784.12 1732.55,782.812 1729.05,781.2Z" style="fill:rgb(89,89,89);"/>
    </g>
    <g transform="matrix(1.01899,0,0,1.06806,-1116.61,-212.804)">
        <path d="M1726.38,768.671C1725.74,770.684 1740.36,767.564 1743.1,767.018C1753.84,764.878 1791.5,752.243 1800.71,754.997C1808.43,757.306 1817.22,789.683 1820.75,797.078C1823.94,803.759 1827.3,813.414 1831.61,819.169C1831.88,819.536 1832.9,815.971 1832.44,815.971C1820.96,815.971 1786.62,796.793 1773.66,791.366C1760.97,786.053 1746.91,779.338 1734.42,773.723C1733.61,773.359 1734.42,769.62 1734.42,768.671" style="fill:rgb(140,140,140);"/>
        <path d="M1728.73,764.339C1731.45,763.929 1740.37,762.582 1742.05,762.245C1749.58,760.746 1770.3,754.103 1785.21,751.197C1792.72,749.734 1798.99,749.373 1802.24,750.343C1803.9,750.84 1805.7,751.97 1807.4,753.849C1809.05,755.676 1810.75,758.365 1812.38,761.587C1817.85,772.396 1822.92,789.863 1825.4,795.055C1827.63,799.728 1829.91,805.93 1832.58,811.096C1834.49,811.131 1836.24,811.921 1837.22,814.108C1837.46,814.631 1837.75,815.556 1837.65,816.778C1837.56,817.996 1836.88,820.291 1836.39,821.194C1835.31,823.212 1833.59,823.775 1832.8,823.948C1830.85,824.374 1828.94,824.011 1827.44,822C1826.94,821.328 1826.45,820.606 1825.97,819.843C1822.81,819.036 1819.12,817.775 1815.15,816.174C1800.27,810.186 1780.69,799.636 1771.61,795.832C1758.87,790.501 1744.77,783.767 1732.24,778.134C1730.99,777.571 1729.57,776.376 1729.11,774.168C1728.4,774.211 1727.78,774.222 1727.28,774.191C1724.54,774.023 1722.98,772.752 1722.3,771.858C1721.31,770.576 1720.91,769.064 1721.49,767.253C1722.31,764.678 1725.16,763.222 1727.86,764.005C1728.17,764.093 1728.45,764.205 1728.73,764.339ZM1819.81,807.467C1818.52,804.502 1817.3,801.603 1816.1,799.101C1813.63,793.94 1808.61,776.572 1803.17,765.827C1802.17,763.838 1801.16,762.102 1800.14,760.798C1799.78,760.341 1799.15,759.751 1798.99,759.597C1796.66,759.01 1792.39,759.753 1787.26,760.752C1772.36,763.656 1751.66,770.294 1744.14,771.792C1743.81,771.858 1743.31,771.958 1742.7,772.079C1753.51,777.02 1765.09,782.454 1775.71,786.901C1784.78,790.694 1804.29,801.218 1819.12,807.189C1819.35,807.283 1819.59,807.376 1819.81,807.467Z" style="fill:rgb(140,140,140);"/>
    </g>
    <g transform="matrix(1.01899,0,0,1.06806,-1116.61,-212.804)">
        <path d="M1520.05,351.555C1519.26,350.698 1518.78,349.577 1518.78,348.35C1518.78,345.658 1521.08,343.473 1523.9,343.473C1526.11,343.473 1527.46,344.23 1528.39,345.05C1529.49,346.011 1530.2,347.294 1530.36,348.947C1530.44,349.711 1530.27,350.734 1530.27,351.764C1530.27,367.903 1529.86,384.116 1530.52,400.231C1532.85,457.465 1530.19,512.935 1522.65,569.513C1520.27,587.35 1517.91,605.228 1515.84,623.098C1515.13,629.181 1515.36,635.297 1515.36,641.429C1515.36,642.377 1515.87,644.945 1516.12,646.13C1516.44,646.771 1516.62,647.49 1516.62,648.249C1516.62,650.401 1515.59,651.374 1515.28,651.697C1513.76,653.304 1511.99,653.621 1510.13,653.135C1509.59,652.993 1507.48,652.448 1506.55,649.835C1506.16,648.742 1505.14,643.42 1505.14,641.429C1505.14,634.938 1504.93,628.465 1505.67,622.025C1507.75,604.103 1510.12,586.171 1512.51,568.281C1519.98,512.241 1522.61,457.3 1520.3,400.61C1519.64,384.368 1520.04,368.029 1520.04,351.764C1520.04,351.699 1520.04,351.629 1520.05,351.555ZM1506.81,646.328C1506.58,646.8 1506.4,647.427 1506.4,648.249C1506.4,647.567 1506.55,646.918 1506.81,646.328Z"/>
    </g>
    <g transform="matrix(1.01899,0,0,1.06806,-1116.61,-212.804)">
        <path d="M1177.49,825.785C1175.17,827.308 1171.98,826.744 1170.38,824.525C1168.79,822.307 1169.38,819.269 1171.71,817.745C1191.56,804.737 1237.62,787.107 1259.17,777.106C1288.2,763.643 1320.09,754.099 1347.61,737.575C1378.18,719.219 1405.79,699.314 1437.95,683.693C1455.55,675.147 1490.2,656.006 1507.82,647.614C1510.34,646.412 1513.41,647.39 1514.67,649.798C1515.93,652.206 1514.91,655.137 1512.38,656.339C1494.79,664.723 1460.17,683.847 1442.59,692.384C1410.71,707.869 1383.36,727.633 1353.06,745.829C1325.23,762.541 1293,772.26 1263.65,785.877C1242.43,795.721 1197.04,812.98 1177.49,825.785Z"/>
    </g>
    <g transform="matrix(1.01899,0,0,1.06806,-1116.61,-212.804)">
        <path d="M1828.81,822.057C1825.96,820.626 1808.94,812.157 1802.87,811.065C1796.19,809.866 1778.34,801.573 1755.26,789.634C1703.06,762.624 1622.89,717.099 1586.22,698.961C1570.41,691.144 1553.39,680.65 1538.83,670.625C1537.28,669.558 1525.73,663.104 1517.26,659.164C1515.04,658.132 1512.46,657.164 1511.26,656.728C1510.6,656.874 1509.9,656.897 1509.2,656.776C1506.42,656.299 1504.57,653.762 1505.07,651.113C1505.31,649.866 1505.93,648.873 1506.86,648.094C1507.75,647.353 1509.25,646.57 1511.53,646.775C1513.36,646.939 1517.23,648.298 1521.74,650.398C1530.81,654.617 1543.16,661.574 1544.82,662.717C1558.99,672.472 1575.54,682.695 1590.92,690.303C1627.63,708.458 1707.88,754.024 1760.14,781.061C1781.83,792.286 1798.48,800.353 1804.76,801.481C1812.4,802.854 1832.47,812.51 1835.12,814.302C1838.67,816.694 1837.37,820.012 1837.05,820.634C1836.55,821.649 1835.26,823.75 1831.81,823.395C1830.64,823.274 1829.6,822.783 1828.81,822.057ZM1515.08,653.086C1515.1,653.005 1515.12,652.923 1515.13,652.84C1515.12,652.923 1515.1,653.005 1515.08,653.086ZM1828.53,815.318C1829.59,814.175 1831.19,813.522 1832.91,813.698C1830.58,813.458 1829.27,814.394 1828.53,815.318Z"/>
    </g>
    <g transform="matrix(1.07256,0,0,1.0054,-1209.47,-160.409)">
        <path d="M1226.66,768.521C1267.23,703.723 1310.33,640.029 1353.71,577.063C1395.61,516.255 1436.86,455.105 1477.69,393.848C1491.75,372.77 1498.18,348.105 1513.06,327.925C1514.6,325.827 1526.46,306.271 1529.06,302.721C1530.83,300.307 1532.87,300.193 1533.25,300.183C1534.97,300.138 1536.26,300.882 1537.2,302.171C1548.99,318.193 1557,337.096 1564.88,356.131C1572.44,374.414 1579.88,392.821 1590.86,408.62C1645.4,487.14 1705.2,558.935 1744.36,646.935C1757.69,676.897 1780.91,700.542 1797.96,728.203C1811.48,750.138 1818.87,775.084 1829.79,798.06C1830.39,799.311 1835.48,813.394 1836.37,819.313C1836.82,822.268 1836.14,824.348 1835.57,825.254C1834.82,826.454 1833.81,827.171 1832.65,827.519C1781.15,842.916 1718.8,828.113 1665.64,830.012C1562.18,833.707 1457.26,841.248 1353.95,841.248C1348.58,841.248 1254.79,837.648 1213.24,832.467C1205.66,831.523 1199.75,830.502 1196.29,829.468C1193.97,828.774 1192.43,827.902 1191.62,827.187C1190.59,826.288 1189.72,824.839 1189.61,822.784C1189.5,820.685 1190.82,816.81 1191.15,816.136C1199.28,799.756 1214.43,786.81 1223.18,771.012C1223.96,769.608 1225.26,768.739 1226.66,768.521ZM1210.75,804.213C1206.89,809.153 1203.26,814.222 1200.4,819.668C1203.58,820.385 1208.94,821.5 1214.37,822.177C1255.59,827.315 1348.62,830.888 1353.95,830.888C1457.15,830.888 1561.96,823.348 1665.32,819.657C1716.45,817.83 1776.23,832.004 1826.27,818.607C1826.17,818.139 1826.05,817.666 1825.93,817.23C1824.36,811.426 1821.54,803.607 1821.13,802.747C1810.37,780.114 1803.17,755.503 1789.85,733.896C1772.55,705.838 1749.11,681.77 1735.59,651.378C1696.7,563.989 1637.22,492.763 1583.05,414.788C1571.65,398.378 1563.85,379.304 1555.99,360.315C1549.34,344.23 1542.65,328.204 1533.41,314.113C1528.91,321.203 1521.86,332.745 1520.69,334.329C1505.91,354.378 1499.57,378.912 1485.61,399.853C1444.74,461.154 1403.47,522.348 1361.54,583.199C1314.95,650.819 1268.69,719.279 1225.55,789.049C1224.61,790.562 1222.75,792.982 1221.17,795.53C1220.57,796.493 1219.91,797.986 1219.55,798.85C1220.95,800.454 1221.28,802.899 1220.23,804.911C1218.92,807.405 1215.95,808.295 1213.62,806.897C1212.37,806.149 1211.42,805.247 1210.75,804.213Z"/>
    </g>
</svg>
